<?xml version="1.0" encoding="UTF-8" ?>
<!DOCTYPE svg PUBLIC "-//W3C//DTD SVG 1.1//EN" "http://www.w3.org/Graphics/SVG/1.1/DTD/svg11.dtd">
<svg width="136pt" height="103pt" viewBox="0 0 136 103" version="1.1" xmlns="http://www.w3.org/2000/svg">
<g id="#fefefeff">
<path fill="#fefefe" opacity="1.00" d=" M 58.45 13.66 C 61.11 11.68 65.75 14.53 64.30 17.85 C 62.44 20.74 60.13 23.36 57.68 25.76 C 55.22 28.29 50.06 25.98 51.04 22.31 C 53.09 19.13 55.59 16.14 58.45 13.66 M 60.58 15.78 C 58.10 15.16 58.65 19.33 60.81 18.62 C 62.73 18.66 62.46 15.22 60.58 15.78 M 54.23 21.39 C 52.82 22.06 53.31 24.55 55.08 24.27 C 57.44 24.26 56.50 20.01 54.23 21.39 Z" />
<path fill="#fefefe" opacity="1.00" d=" M 64.39 23.02 C 66.66 25.28 69.04 27.45 71.32 29.71 C 70.09 31.08 68.87 32.45 67.65 33.82 C 65.30 31.66 62.95 29.51 60.61 27.34 C 61.88 25.91 63.14 24.46 64.39 23.02 Z" />
<path fill="#fefefe" opacity="1.00" d=" M 52.24 29.47 C 53.08 29.60 53.92 29.72 54.76 29.84 C 54.75 31.64 54.75 33.45 54.74 35.25 C 54.12 35.25 52.88 35.25 52.26 35.25 C 52.25 33.33 52.25 31.40 52.24 29.47 Z" />
<path fill="#fefefe" opacity="1.00" d=" M 73.59 31.79 C 84.72 42.08 95.58 52.66 106.80 62.85 C 104.78 63.00 102.78 63.26 100.83 63.81 C 90.54 54.54 80.31 45.20 70.02 35.94 C 71.22 34.56 72.41 33.18 73.59 31.79 Z" />
<path fill="#fefefe" opacity="1.00" d=" M 50.88 38.35 C 52.64 38.30 54.39 38.28 56.15 38.29 C 55.88 40.03 55.56 41.76 55.24 43.49 C 54.11 43.50 52.99 43.51 51.86 43.50 C 51.52 41.79 51.18 40.07 50.88 38.35 Z" />
<path fill="#fefefe" opacity="1.00" d=" M 72.29 44.22 C 73.92 43.72 74.47 44.28 73.92 45.91 C 72.28 46.41 71.73 45.85 72.29 44.22 Z" />
<path fill="#fefefe" opacity="1.00" d=" M 76.30 46.52 C 81.67 50.00 85.92 54.91 90.81 59.00 C 88.49 59.00 86.17 59.00 83.84 59.01 C 81.30 54.86 78.36 50.94 76.30 46.52 Z" />
<path fill="#fefefe" opacity="1.00" d=" M 77.08 62.11 C 82.29 62.06 87.55 61.69 92.74 62.26 C 94.20 66.06 93.96 70.46 96.10 73.98 C 98.56 74.77 101.18 74.46 103.72 74.52 C 103.74 75.14 103.77 76.36 103.79 76.98 C 94.17 76.97 84.54 77.09 74.93 76.94 C 73.22 77.20 72.99 75.09 73.28 73.91 C 74.14 69.86 75.78 66.03 77.08 62.11 M 79.28 65.04 C 76.88 67.33 75.51 72.39 79.14 74.22 C 82.72 74.74 86.40 74.63 90.01 74.32 C 94.91 73.04 92.72 64.23 87.97 64.53 C 85.08 64.48 82.07 64.15 79.28 65.04 Z" />
<path fill="#fefefe" opacity="1.00" d=" M 35.18 63.67 C 40.25 62.96 45.40 63.14 50.49 63.55 C 50.97 69.71 50.70 75.90 50.74 82.07 C 50.86 84.50 48.80 86.20 47.82 88.24 C 42.93 88.24 38.03 88.30 33.14 88.17 C 32.28 86.26 30.88 84.28 31.54 82.09 C 32.65 75.93 34.03 69.82 35.18 63.67 M 38.05 66.23 C 36.59 66.84 36.43 68.56 36.09 69.89 C 35.34 73.60 34.47 77.29 33.99 81.04 C 33.47 83.41 35.57 85.83 37.98 85.68 C 41.35 85.68 45.22 86.58 48.06 84.27 C 47.89 79.14 48.13 73.99 47.96 68.86 C 48.08 67.65 47.32 66.24 46.02 66.13 C 43.38 65.86 40.68 65.82 38.05 66.23 Z" />
<path fill="#fefefe" opacity="1.00" d=" M 97.87 70.26 C 97.39 68.22 96.92 66.18 96.42 64.15 C 97.46 65.07 98.51 65.98 99.56 66.89 C 98.99 68.01 98.43 69.13 97.87 70.26 Z" />
<path fill="#fefefe" opacity="1.00" d=" M 106.03 66.26 C 108.02 66.25 110.01 66.25 112.00 66.25 C 112.00 68.00 112.00 69.75 112.00 71.50 C 110.60 71.50 109.20 71.50 107.80 71.50 C 107.21 69.75 106.63 68.00 106.03 66.26 Z" />
<path fill="#fefefe" opacity="1.00" d=" M 100.76 71.49 C 101.51 69.98 102.26 68.48 103.02 66.98 C 103.53 68.49 104.04 70.01 104.55 71.52 C 103.28 71.51 102.02 71.49 100.76 71.49 Z" />
<path fill="#fefefe" opacity="1.00" d=" M 80.92 67.55 C 83.61 67.49 86.30 67.49 88.99 67.64 C 89.16 68.59 89.51 70.49 89.68 71.44 C 86.36 71.53 83.03 71.54 79.71 71.34 C 80.13 70.08 80.54 68.82 80.92 67.55 Z" />
<path fill="#fefefe" opacity="1.00" d=" M 39.31 69.06 C 41.21 69.02 43.11 69.00 45.02 68.98 C 45.00 70.85 44.98 72.73 44.92 74.61 C 43.39 74.33 42.15 73.50 41.39 72.12 C 40.80 71.92 39.61 71.50 39.02 71.30 C 39.09 70.74 39.24 69.62 39.31 69.06 Z" />
<path fill="#fefefe" opacity="1.00" d=" M 53.75 69.01 C 57.36 69.13 61.04 68.63 64.61 69.33 C 65.28 71.83 65.45 74.44 65.80 77.00 C 61.78 77.00 57.77 77.00 53.75 77.00 C 53.75 74.34 53.75 71.67 53.75 69.01 M 56.00 71.00 C 56.00 71.75 56.00 73.25 56.00 74.00 C 58.00 74.00 60.00 74.00 62.00 74.00 C 62.00 73.25 62.00 71.75 62.00 71.00 C 60.00 71.00 58.00 71.00 56.00 71.00 Z" />
<path fill="#fefefe" opacity="1.00" d=" M 38.09 74.48 C 39.69 73.28 40.73 76.16 39.48 77.08 C 37.89 78.25 36.75 75.38 38.09 74.48 Z" />
<path fill="#fefefe" opacity="1.00" d=" M 42.90 77.37 C 43.42 77.32 44.45 77.21 44.96 77.16 C 44.99 79.02 45.00 80.89 45.01 82.76 C 42.21 82.25 37.27 84.38 36.61 80.32 C 39.11 80.19 41.81 80.04 42.90 77.37 Z" />
<path fill="#fefefe" opacity="1.00" d=" M 53.75 80.00 C 73.17 80.00 92.59 80.00 112.00 80.00 C 112.00 80.68 112.00 82.04 112.00 82.73 C 109.73 82.75 107.43 82.62 105.18 82.95 C 103.30 84.22 103.93 86.76 103.47 88.65 C 100.17 88.23 99.76 84.01 96.67 83.15 C 93.77 81.95 90.82 83.19 88.52 84.99 C 86.55 83.75 84.45 82.20 81.98 82.78 C 78.82 82.94 76.92 85.70 75.62 88.25 C 75.06 88.25 73.94 88.25 73.38 88.26 C 72.11 85.69 70.21 82.91 67.04 82.78 C 64.56 82.19 62.46 83.74 60.50 84.99 C 58.56 83.43 56.23 82.58 53.74 82.52 C 53.74 81.89 53.75 80.63 53.75 80.00 Z" />
<path fill="#fefefe" opacity="1.00" d=" M 53.21 86.14 C 56.08 84.57 59.87 87.76 58.76 90.83 C 58.19 93.64 54.29 94.76 52.31 92.70 C 50.10 90.97 50.82 87.34 53.21 86.14 M 52.91 89.91 C 53.49 90.36 54.65 91.28 55.23 91.74 C 55.73 90.84 57.27 89.93 56.10 88.88 C 55.10 87.03 53.84 89.19 52.91 89.91 Z" />
<path fill="#fefefe" opacity="1.00" d=" M 64.25 86.28 C 66.81 84.64 70.50 87.08 70.10 90.03 C 70.14 93.28 65.52 95.04 63.36 92.60 C 61.38 90.84 61.89 87.45 64.25 86.28 M 65.12 88.30 C 63.91 89.84 65.02 91.91 67.08 91.33 C 68.34 89.60 67.32 87.66 65.12 88.30 Z" />
<path fill="#fefefe" opacity="1.00" d=" M 81.22 86.15 C 84.11 84.60 87.83 87.79 86.71 90.86 C 86.09 93.85 81.64 94.80 79.87 92.30 C 78.13 90.40 78.95 87.22 81.22 86.15 M 82.33 88.38 C 80.11 89.17 82.24 92.76 83.87 90.89 C 85.38 90.13 83.70 87.23 82.33 88.38 Z" />
<path fill="#fefefe" opacity="1.00" d=" M 92.24 86.21 C 95.48 84.33 99.57 88.41 97.60 91.61 C 96.40 94.22 92.45 94.45 90.85 92.11 C 89.34 90.22 90.14 87.29 92.24 86.21 M 93.15 88.36 C 91.51 89.44 93.44 92.65 94.90 90.95 C 96.63 90.14 94.85 87.29 93.15 88.36 Z" />
</g>
<g id="#0013aeff">
<path fill="#0013ae" opacity="1.00" d=" M 51.02 16.97 C 53.71 14.00 56.18 9.60 60.84 10.04 C 66.27 9.77 69.37 16.34 66.48 20.70 C 81.38 34.73 96.21 48.85 111.25 62.73 C 112.44 63.17 113.76 63.42 114.76 64.26 C 115.21 67.25 114.95 70.29 115.05 73.30 C 112.60 74.98 109.55 74.45 106.75 74.53 C 106.75 75.14 106.75 76.34 106.75 76.95 C 109.36 77.28 112.65 76.22 114.73 78.27 C 114.94 80.54 115.99 83.92 113.60 85.35 C 111.47 86.03 109.15 85.67 106.95 85.80 C 106.72 87.27 106.80 88.83 106.21 90.22 C 104.93 91.57 102.91 91.11 101.26 91.38 C 100.10 93.38 98.94 95.70 96.55 96.43 C 93.68 97.55 90.65 96.35 88.47 94.42 C 86.45 96.17 83.82 97.43 81.10 96.62 C 78.31 96.11 76.86 93.48 75.62 91.21 C 75.05 91.23 73.90 91.25 73.33 91.26 C 72.13 93.88 70.14 96.60 67.00 96.78 C 64.53 97.26 62.39 95.89 60.57 94.42 C 58.50 96.13 55.86 97.43 53.13 96.60 C 50.33 96.13 48.95 93.45 47.66 91.24 C 43.43 91.22 39.20 91.32 34.97 91.24 C 30.24 91.68 27.64 85.97 28.45 81.95 C 29.52 75.91 30.75 69.90 32.05 63.91 C 32.22 61.46 34.72 60.76 36.59 59.95 C 36.91 58.26 36.33 56.00 38.17 55.03 C 40.24 54.59 42.65 54.34 44.54 55.52 C 45.30 56.94 45.22 58.60 45.44 60.15 C 47.76 60.41 50.52 59.83 52.43 61.52 C 53.50 62.76 53.58 64.49 54.03 66.00 C 57.88 66.20 61.86 65.50 65.62 66.40 C 69.20 68.49 67.98 73.55 68.85 77.00 L 70.15 77.00 C 69.94 71.45 72.34 66.29 74.22 61.20 C 75.14 58.78 78.00 59.02 80.10 58.83 C 78.03 55.82 76.12 52.69 74.09 49.66 C 72.00 49.20 69.22 48.60 68.92 46.02 C 68.29 44.01 69.90 42.48 70.91 40.98 C 66.53 37.04 62.22 33.03 57.77 29.16 C 57.43 32.58 57.91 35.93 59.15 39.11 C 58.97 42.09 58.35 45.75 55.16 46.89 C 55.49 50.07 53.88 52.68 52.14 55.16 C 54.29 57.37 55.89 54.95 56.58 52.91 C 57.54 53.23 58.49 53.55 59.45 53.87 C 58.52 55.64 58.04 58.06 55.92 58.82 C 53.46 59.99 49.98 58.63 49.41 55.85 C 48.60 53.43 50.62 51.49 51.90 49.71 C 51.93 49.02 51.98 47.66 52.00 46.98 C 48.41 45.48 47.32 40.80 48.45 37.37 C 49.86 33.28 49.47 28.79 48.19 24.72 C 47.13 21.77 49.17 19.06 51.02 16.97 M 58.45 13.66 C 55.59 16.14 53.09 19.13 51.04 22.31 C 50.06 25.98 55.22 28.29 57.68 25.76 C 60.13 23.36 62.44 20.74 64.30 17.85 C 65.75 14.53 61.11 11.68 58.45 13.66 M 64.39 23.02 C 63.14 24.46 61.88 25.91 60.61 27.34 C 62.95 29.51 65.30 31.66 67.65 33.82 C 68.87 32.45 70.09 31.08 71.32 29.71 C 69.04 27.45 66.66 25.28 64.39 23.02 M 52.24 29.47 C 52.25 31.40 52.25 33.33 52.26 35.25 C 52.88 35.25 54.12 35.25 54.74 35.25 C 54.75 33.45 54.75 31.64 54.76 29.84 C 53.92 29.72 53.08 29.60 52.24 29.47 M 73.59 31.79 C 72.41 33.18 71.22 34.56 70.02 35.94 C 80.31 45.20 90.54 54.54 100.83 63.81 C 102.78 63.26 104.78 63.00 106.80 62.85 C 95.58 52.66 84.72 42.08 73.59 31.79 M 50.88 38.35 C 51.18 40.07 51.52 41.79 51.86 43.50 C 52.99 43.51 54.11 43.50 55.24 43.49 C 55.56 41.76 55.88 40.03 56.15 38.29 C 54.39 38.28 52.64 38.30 50.88 38.35 M 72.29 44.22 C 71.73 45.85 72.28 46.41 73.92 45.91 C 74.47 44.28 73.92 43.72 72.29 44.22 M 76.30 46.52 C 78.36 50.94 81.30 54.86 83.84 59.01 C 86.17 59.00 88.49 59.00 90.81 59.00 C 85.92 54.91 81.67 50.00 76.30 46.52 M 77.08 62.11 C 75.78 66.03 74.14 69.86 73.28 73.91 C 72.99 75.09 73.22 77.20 74.93 76.94 C 84.54 77.09 94.17 76.97 103.79 76.98 C 103.77 76.36 103.74 75.14 103.72 74.52 C 101.18 74.46 98.56 74.77 96.10 73.98 C 93.96 70.46 94.20 66.06 92.74 62.26 C 87.55 61.69 82.29 62.06 77.08 62.11 M 35.18 63.67 C 34.03 69.82 32.65 75.93 31.54 82.09 C 30.88 84.28 32.28 86.26 33.14 88.17 C 38.03 88.30 42.93 88.24 47.82 88.24 C 48.80 86.20 50.86 84.50 50.74 82.07 C 50.70 75.90 50.97 69.71 50.49 63.55 C 45.40 63.14 40.25 62.96 35.18 63.67 M 97.87 70.26 C 98.43 69.13 98.99 68.01 99.56 66.89 C 98.51 65.98 97.46 65.07 96.42 64.15 C 96.92 66.18 97.39 68.22 97.87 70.26 M 106.03 66.26 C 106.63 68.00 107.21 69.75 107.80 71.50 C 109.20 71.50 110.60 71.50 112.00 71.50 C 112.00 69.75 112.00 68.00 112.00 66.25 C 110.01 66.25 108.02 66.25 106.03 66.26 M 100.76 71.49 C 102.02 71.49 103.28 71.51 104.55 71.52 C 104.04 70.01 103.53 68.49 103.02 66.98 C 102.26 68.48 101.51 69.98 100.76 71.49 M 53.75 69.01 C 53.75 71.67 53.75 74.34 53.75 77.00 C 57.77 77.00 61.78 77.00 65.80 77.00 C 65.45 74.44 65.28 71.83 64.61 69.33 C 61.04 68.63 57.36 69.13 53.75 69.01 M 53.75 80.00 C 53.75 80.63 53.74 81.89 53.74 82.52 C 56.23 82.58 58.56 83.43 60.50 84.99 C 62.46 83.74 64.56 82.19 67.04 82.78 C 70.21 82.91 72.11 85.69 73.38 88.26 C 73.94 88.25 75.06 88.25 75.62 88.25 C 76.92 85.70 78.82 82.94 81.98 82.78 C 84.45 82.20 86.55 83.75 88.52 84.99 C 90.82 83.19 93.77 81.95 96.67 83.15 C 99.76 84.01 100.17 88.23 103.47 88.65 C 103.93 86.76 103.30 84.22 105.18 82.95 C 107.43 82.62 109.73 82.75 112.00 82.73 C 112.00 82.04 112.00 80.68 112.00 80.00 C 92.59 80.00 73.17 80.00 53.75 80.00 M 53.21 86.14 C 50.82 87.34 50.10 90.97 52.31 92.70 C 54.29 94.76 58.19 93.64 58.76 90.83 C 59.87 87.76 56.08 84.57 53.21 86.14 M 64.25 86.28 C 61.89 87.45 61.38 90.84 63.36 92.60 C 65.52 95.04 70.14 93.28 70.10 90.03 C 70.50 87.08 66.81 84.64 64.25 86.28 M 81.22 86.15 C 78.95 87.22 78.13 90.40 79.87 92.30 C 81.64 94.80 86.09 93.85 86.71 90.86 C 87.83 87.79 84.11 84.60 81.22 86.15 M 92.24 86.21 C 90.14 87.29 89.34 90.22 90.85 92.11 C 92.45 94.45 96.40 94.22 97.60 91.61 C 99.57 88.41 95.48 84.33 92.24 86.21 Z" />
<path fill="#0013ae" opacity="1.00" d=" M 60.58 15.78 C 62.46 15.22 62.73 18.66 60.81 18.62 C 58.65 19.33 58.10 15.16 60.58 15.78 Z" />
<path fill="#0013ae" opacity="1.00" d=" M 54.23 21.39 C 56.50 20.01 57.44 24.26 55.08 24.27 C 53.31 24.55 52.82 22.06 54.23 21.39 Z" />
<path fill="#0013ae" opacity="1.00" d=" M 79.28 65.04 C 82.07 64.15 85.08 64.48 87.97 64.53 C 92.72 64.23 94.91 73.04 90.01 74.32 C 86.40 74.63 82.72 74.74 79.14 74.22 C 75.51 72.39 76.88 67.33 79.28 65.04 M 80.92 67.55 C 80.54 68.82 80.13 70.08 79.71 71.34 C 83.03 71.54 86.36 71.53 89.68 71.44 C 89.51 70.49 89.16 68.59 88.99 67.64 C 86.30 67.49 83.61 67.49 80.92 67.55 Z" />
<path fill="#0013ae" opacity="1.00" d=" M 38.05 66.23 C 40.68 65.82 43.38 65.86 46.02 66.13 C 47.32 66.24 48.08 67.65 47.96 68.86 C 48.13 73.99 47.89 79.14 48.06 84.27 C 45.22 86.58 41.35 85.68 37.98 85.68 C 35.57 85.83 33.47 83.41 33.99 81.04 C 34.47 77.29 35.34 73.60 36.09 69.89 C 36.43 68.56 36.59 66.84 38.05 66.23 M 39.31 69.06 C 39.24 69.62 39.09 70.74 39.02 71.30 C 39.61 71.50 40.80 71.92 41.39 72.12 C 42.15 73.50 43.39 74.33 44.92 74.61 C 44.98 72.73 45.00 70.85 45.02 68.98 C 43.11 69.00 41.21 69.02 39.31 69.06 M 38.09 74.48 C 36.75 75.38 37.89 78.25 39.48 77.08 C 40.73 76.16 39.69 73.28 38.09 74.48 M 42.90 77.37 C 41.81 80.04 39.11 80.19 36.61 80.32 C 37.27 84.38 42.21 82.25 45.01 82.76 C 45.00 80.89 44.99 79.02 44.96 77.16 C 44.45 77.21 43.42 77.32 42.90 77.37 Z" />
<path fill="#0013ae" opacity="1.00" d=" M 56.00 71.00 C 58.00 71.00 60.00 71.00 62.00 71.00 C 62.00 71.75 62.00 73.25 62.00 74.00 C 60.00 74.00 58.00 74.00 56.00 74.00 C 56.00 73.25 56.00 71.75 56.00 71.00 Z" />
<path fill="#0013ae" opacity="1.00" d=" M 52.91 89.91 C 53.84 89.19 55.10 87.03 56.10 88.88 C 57.27 89.93 55.73 90.84 55.23 91.74 C 54.65 91.28 53.49 90.36 52.91 89.91 Z" />
<path fill="#0013ae" opacity="1.00" d=" M 65.12 88.30 C 67.32 87.66 68.34 89.60 67.08 91.33 C 65.02 91.91 63.91 89.84 65.12 88.30 Z" />
<path fill="#0013ae" opacity="1.00" d=" M 82.33 88.38 C 83.70 87.23 85.38 90.13 83.87 90.89 C 82.24 92.76 80.11 89.17 82.33 88.38 Z" />
<path fill="#0013ae" opacity="1.00" d=" M 93.15 88.36 C 94.85 87.29 96.63 90.14 94.90 90.95 C 93.44 92.65 91.51 89.44 93.15 88.36 Z" />
</g>
</svg>
