<?xml version="1.0" encoding="UTF-8" ?>
<!DOCTYPE svg PUBLIC "-//W3C//DTD SVG 1.1//EN" "http://www.w3.org/Graphics/SVG/1.1/DTD/svg11.dtd">
<svg width="114pt" height="111pt" viewBox="0 0 114 111" version="1.1" xmlns="http://www.w3.org/2000/svg">
<g id="#fefefeff">
<path fill="#fefefe" opacity="1.00" d=" M 56.51 22.04 C 66.03 21.94 75.56 22.05 85.08 21.97 C 86.52 22.15 88.23 21.62 89.49 22.49 C 90.70 25.82 91.54 29.31 92.04 32.83 C 91.48 33.11 90.36 33.67 89.80 33.95 C 88.46 30.83 89.49 25.02 84.98 24.61 C 75.66 24.22 66.31 24.78 57.00 24.38 C 56.88 23.79 56.63 22.62 56.51 22.04 Z" />
<path fill="#fefefe" opacity="1.00" d=" M 57.03 48.27 C 57.88 41.43 58.74 34.59 59.59 27.75 C 64.48 27.76 69.36 27.75 74.25 27.75 C 74.23 35.47 74.30 43.19 74.21 50.90 C 71.64 52.14 71.22 54.65 71.38 57.25 C 68.51 57.25 65.63 57.25 62.76 57.25 C 62.75 55.06 62.75 52.87 62.74 50.68 C 63.90 49.49 65.08 48.31 66.25 47.13 C 67.17 48.04 68.08 48.95 69.00 49.86 C 69.59 49.28 70.77 48.11 71.36 47.52 C 68.83 45.04 66.49 42.36 63.78 40.08 C 62.84 40.57 61.96 41.19 61.16 41.95 C 62.10 42.93 63.04 43.90 63.99 44.87 C 62.88 45.99 61.77 47.10 60.67 48.22 C 59.45 48.24 58.24 48.25 57.03 48.27 Z" />
<path fill="#fefefe" opacity="1.00" d=" M 77.50 51.25 C 77.50 43.42 77.50 35.58 77.50 27.75 C 80.01 27.75 82.52 27.75 85.02 27.75 C 86.76 35.58 88.52 43.41 90.23 51.25 C 85.99 51.25 81.75 51.25 77.50 51.25 Z" />
<path fill="#fefefe" opacity="1.00" d=" M 45.00 30.75 C 45.69 30.75 47.06 30.75 47.75 30.76 C 47.65 36.52 47.95 42.29 47.62 48.05 C 46.98 48.15 45.68 48.35 45.03 48.45 C 44.97 42.55 45.01 36.65 45.00 30.75 Z" />
<path fill="#fefefe" opacity="1.00" d=" M 36.00 51.50 C 41.82 51.50 47.64 51.50 53.46 51.50 C 53.87 54.39 52.16 59.85 56.37 60.41 C 61.41 60.69 66.46 60.41 71.50 60.50 C 71.50 63.42 71.50 66.33 71.50 69.25 C 63.69 69.30 55.88 69.15 48.07 69.30 C 43.26 69.44 38.94 72.18 35.96 75.82 C 36.05 67.71 35.98 59.61 36.00 51.50 M 40.44 54.62 C 37.21 56.79 38.04 64.42 43.00 63.52 C 45.48 63.32 49.14 64.38 50.58 61.71 C 50.72 59.45 51.58 56.21 49.35 54.73 C 46.50 53.91 43.32 54.01 40.44 54.62 Z" />
<path fill="#fefefe" opacity="1.00" d=" M 56.75 51.50 C 57.44 51.50 58.81 51.50 59.50 51.50 C 59.50 53.42 59.50 55.33 59.50 57.25 C 58.81 57.25 57.44 57.25 56.75 57.25 C 56.75 55.33 56.75 53.42 56.75 51.50 Z" />
<path fill="#fefefe" opacity="1.00" d=" M 74.50 54.50 C 80.42 54.50 86.33 54.50 92.25 54.50 C 92.25 59.57 92.25 64.63 92.25 69.69 C 86.37 68.92 80.42 69.35 74.51 69.25 C 74.50 64.34 74.50 59.42 74.50 54.50 M 79.40 57.47 C 76.43 58.73 76.62 63.46 78.33 65.72 C 80.66 67.01 83.48 66.48 86.03 66.46 C 90.21 66.58 90.18 60.93 88.76 58.27 C 86.05 56.49 82.45 57.25 79.40 57.47 Z" />
<path fill="#fefefe" opacity="1.00" d=" M 95.54 54.43 C 96.16 54.85 97.40 55.70 98.02 56.13 C 97.98 61.64 98.01 67.15 97.99 72.65 C 97.37 72.24 96.12 71.40 95.50 70.99 C 95.52 65.47 95.46 59.95 95.54 54.43 Z" />
<path fill="#fefefe" opacity="1.00" d=" M 42.00 57.50 C 43.92 57.50 45.83 57.50 47.75 57.50 C 47.75 58.19 47.75 59.56 47.74 60.25 C 45.83 60.25 43.91 60.25 42.00 60.25 C 42.00 59.56 42.00 58.19 42.00 57.50 Z" />
<path fill="#fefefe" opacity="1.00" d=" M 80.50 60.50 C 82.42 60.50 84.33 60.50 86.25 60.50 C 86.25 61.19 86.25 62.56 86.25 63.25 C 84.33 63.25 82.42 63.25 80.50 63.25 C 80.50 62.56 80.50 61.19 80.50 60.50 Z" />
<path fill="#fefefe" opacity="1.00" d=" M 21.25 66.51 C 21.94 66.51 23.31 66.50 24.00 66.49 C 24.01 76.33 24.00 86.17 24.00 96.00 C 21.08 96.00 18.15 96.00 15.23 95.99 C 15.24 95.25 15.27 93.75 15.28 93.00 C 18.11 91.64 20.90 89.40 21.06 86.00 C 21.52 79.52 21.12 73.00 21.25 66.51 Z" />
<path fill="#fefefe" opacity="1.00" d=" M 49.23 72.36 C 61.50 72.12 73.79 72.30 86.08 72.27 C 90.43 72.20 95.00 73.59 97.83 77.06 C 101.64 81.34 102.07 88.16 98.81 92.87 C 96.45 96.39 92.38 98.75 88.11 98.75 C 75.05 98.75 61.99 98.77 48.93 98.74 C 41.10 98.84 34.51 90.69 36.33 83.05 C 37.45 77.01 43.14 72.46 49.23 72.36 M 46.43 75.48 C 40.76 76.84 37.31 83.43 39.23 88.90 C 40.61 93.44 45.27 96.38 49.94 96.20 C 61.99 96.32 74.04 96.23 86.09 96.24 C 89.78 96.32 93.80 95.27 96.10 92.17 C 99.76 87.71 98.80 80.32 94.01 77.06 C 91.45 75.11 88.09 75.01 85.01 74.98 C 74.34 75.00 63.67 75.02 53.00 74.98 C 50.81 75.00 48.58 74.96 46.43 75.48 Z" />
<path fill="#fefefe" opacity="1.00" d=" M 56.94 78.19 C 58.90 78.23 60.86 78.24 62.82 78.21 C 62.62 80.15 62.63 82.10 62.82 84.04 C 61.78 84.01 60.74 83.97 59.71 83.94 C 59.00 81.93 58.10 79.99 56.94 78.19 Z" />
<path fill="#fefefe" opacity="1.00" d=" M 74.33 78.18 C 76.24 78.23 78.14 78.24 80.05 78.22 C 78.99 80.06 78.08 81.97 77.34 83.95 C 76.32 83.98 75.30 84.01 74.29 84.04 C 74.37 82.08 74.41 80.13 74.33 78.18 Z" />
<path fill="#fefefe" opacity="1.00" d=" M 42.23 86.96 C 40.83 81.74 46.98 76.64 51.86 78.94 C 54.29 79.73 55.49 82.14 56.59 84.24 C 53.13 84.81 51.67 79.97 48.18 81.19 C 44.41 81.77 43.46 87.42 46.65 89.38 C 49.15 91.28 52.33 89.64 53.83 87.29 C 54.51 87.30 55.87 87.32 56.56 87.33 C 55.26 89.60 53.66 92.10 50.88 92.62 C 47.10 93.54 42.78 90.88 42.23 86.96 Z" />
<path fill="#fefefe" opacity="1.00" d=" M 66.46 79.30 C 68.60 76.61 73.01 80.11 70.78 82.76 C 68.78 86.02 63.76 81.97 66.46 79.30 Z" />
<path fill="#fefefe" opacity="1.00" d=" M 80.52 83.87 C 81.86 81.69 83.35 79.17 86.09 78.63 C 90.56 77.35 95.48 81.40 95.00 86.07 C 94.93 90.88 89.20 94.31 84.90 92.19 C 82.77 91.30 81.72 89.14 80.56 87.30 C 81.23 87.30 82.58 87.30 83.25 87.30 C 84.81 89.24 87.23 91.11 89.81 89.77 C 93.64 88.16 93.01 81.84 88.89 81.14 C 86.48 80.42 84.60 82.26 83.25 83.96 C 82.57 83.94 81.21 83.89 80.52 83.87 Z" />
<path fill="#fefefe" opacity="1.00" d=" M 27.01 81.25 C 29.10 81.25 31.19 81.25 33.28 81.25 C 33.20 81.94 33.02 83.31 32.94 84.00 C 30.96 84.00 28.98 84.00 27.00 84.00 C 27.00 83.31 27.00 81.94 27.01 81.25 Z" />
<path fill="#fefefe" opacity="1.00" d=" M 48.87 87.19 C 46.99 86.68 47.80 83.64 49.68 84.13 C 51.50 84.59 50.68 87.69 48.87 87.19 Z" />
<path fill="#fefefe" opacity="1.00" d=" M 87.42 84.46 C 88.20 83.74 90.37 86.25 88.54 86.48 C 87.23 88.20 85.55 84.70 87.42 84.46 Z" />
<path fill="#fefefe" opacity="1.00" d=" M 62.06 88.03 C 64.56 85.40 68.66 89.65 66.05 92.05 C 63.62 94.67 59.46 90.57 62.06 88.03 Z" />
<path fill="#fefefe" opacity="1.00" d=" M 70.67 88.62 C 72.23 85.27 77.53 88.66 75.35 91.46 C 73.74 94.71 68.44 91.45 70.67 88.62 Z" />
</g>
<g id="#0013aeff">
<path fill="#0013ae" opacity="1.00" d=" M 38.75 9.75 C 39.56 9.75 41.19 9.75 42.00 9.75 C 42.00 10.43 42.00 11.79 42.00 12.47 C 43.98 12.97 46.71 13.10 47.44 15.43 C 48.51 19.26 47.81 23.32 48.03 27.25 C 48.86 28.14 50.68 28.60 50.68 30.04 C 50.89 36.11 50.67 42.18 50.76 48.24 C 51.50 48.25 52.99 48.25 53.73 48.25 C 54.58 41.63 55.41 35.00 56.22 28.38 C 53.33 26.70 52.82 23.15 53.98 20.23 C 54.93 18.27 57.23 18.87 58.98 18.73 C 68.68 18.79 78.38 18.71 88.08 18.76 C 90.29 18.48 92.41 19.96 92.89 22.13 C 93.94 25.71 95.01 29.34 95.38 33.06 C 95.11 35.64 92.55 36.51 90.44 37.16 C 91.50 41.77 92.47 46.40 93.56 51.00 C 96.63 51.32 100.56 52.39 101.08 55.99 C 101.65 62.56 100.84 69.20 101.44 75.76 C 102.95 79.31 104.83 82.98 104.20 86.97 C 103.76 95.18 96.32 102.16 88.08 101.98 C 74.66 101.98 61.24 102.08 47.82 101.94 C 40.00 101.57 33.66 94.83 32.76 87.22 C 30.84 87.24 28.92 87.25 26.99 87.26 C 26.89 90.73 27.35 94.28 26.69 97.70 C 25.72 99.39 23.57 98.88 21.96 99.03 C 19.09 98.91 16.11 99.38 13.31 98.63 C 11.58 97.28 11.96 94.80 12.03 92.88 C 12.00 89.21 17.46 89.55 17.76 86.00 C 18.46 79.04 17.59 72.00 18.17 65.03 C 20.02 62.16 24.67 62.78 27.06 64.72 C 26.97 69.15 27.00 73.57 27.00 78.00 C 28.92 78.00 30.83 78.00 32.75 78.00 C 32.75 70.00 32.76 62.01 32.73 54.01 C 32.83 52.28 32.50 50.14 34.00 48.89 C 36.45 47.90 39.18 48.34 41.75 48.21 C 41.84 42.15 41.56 36.09 41.87 30.05 C 41.78 28.44 43.80 28.12 44.73 27.20 C 44.73 24.08 44.88 20.96 44.68 17.85 C 44.92 16.31 42.98 16.21 42.09 15.57 C 42.06 16.43 42.00 18.14 41.97 19.00 C 41.16 19.00 39.55 19.00 38.75 19.00 C 38.75 15.92 38.75 12.83 38.75 9.75 M 56.51 22.04 C 56.63 22.62 56.88 23.79 57.00 24.38 C 66.31 24.78 75.66 24.22 84.98 24.61 C 89.49 25.02 88.46 30.83 89.80 33.95 C 90.36 33.67 91.48 33.11 92.04 32.83 C 91.54 29.31 90.70 25.82 89.49 22.49 C 88.23 21.62 86.52 22.15 85.08 21.97 C 75.56 22.05 66.03 21.94 56.51 22.04 M 57.03 48.27 C 58.24 48.25 59.45 48.24 60.67 48.22 C 61.77 47.10 62.88 45.99 63.99 44.87 C 63.04 43.90 62.10 42.93 61.16 41.95 C 61.96 41.19 62.84 40.57 63.78 40.08 C 66.49 42.36 68.83 45.04 71.36 47.52 C 70.77 48.11 69.59 49.28 69.00 49.86 C 68.08 48.95 67.17 48.04 66.25 47.13 C 65.08 48.31 63.90 49.49 62.74 50.68 C 62.75 52.87 62.75 55.06 62.76 57.25 C 65.63 57.25 68.51 57.25 71.38 57.25 C 71.22 54.65 71.64 52.14 74.21 50.90 C 74.30 43.19 74.23 35.47 74.25 27.75 C 69.36 27.75 64.48 27.76 59.59 27.75 C 58.74 34.59 57.88 41.43 57.03 48.27 M 77.50 51.25 C 81.75 51.25 85.99 51.25 90.23 51.25 C 88.52 43.41 86.76 35.58 85.02 27.75 C 82.52 27.75 80.01 27.75 77.50 27.75 C 77.50 35.58 77.50 43.42 77.50 51.25 M 45.00 30.75 C 45.01 36.65 44.97 42.55 45.03 48.45 C 45.68 48.35 46.98 48.15 47.62 48.05 C 47.95 42.29 47.65 36.52 47.75 30.76 C 47.06 30.75 45.69 30.75 45.00 30.75 M 36.00 51.50 C 35.98 59.61 36.05 67.71 35.96 75.82 C 38.94 72.18 43.26 69.44 48.07 69.30 C 55.88 69.15 63.69 69.30 71.50 69.25 C 71.50 66.33 71.50 63.42 71.50 60.50 C 66.46 60.41 61.41 60.69 56.37 60.41 C 52.16 59.85 53.87 54.39 53.46 51.50 C 47.64 51.50 41.82 51.50 36.00 51.50 M 56.75 51.50 C 56.75 53.42 56.75 55.33 56.75 57.25 C 57.44 57.25 58.81 57.25 59.50 57.25 C 59.50 55.33 59.50 53.42 59.50 51.50 C 58.81 51.50 57.44 51.50 56.75 51.50 M 74.50 54.50 C 74.50 59.42 74.50 64.34 74.51 69.25 C 80.42 69.35 86.37 68.92 92.25 69.69 C 92.25 64.63 92.25 59.57 92.25 54.50 C 86.33 54.50 80.42 54.50 74.50 54.50 M 95.54 54.43 C 95.46 59.95 95.52 65.47 95.50 70.99 C 96.12 71.40 97.37 72.24 97.99 72.65 C 98.01 67.15 97.98 61.64 98.02 56.13 C 97.40 55.70 96.16 54.85 95.54 54.43 M 21.25 66.51 C 21.12 73.00 21.52 79.52 21.06 86.00 C 20.90 89.40 18.11 91.64 15.28 93.00 C 15.27 93.75 15.24 95.25 15.23 95.99 C 18.15 96.00 21.08 96.00 24.00 96.00 C 24.00 86.17 24.01 76.33 24.00 66.49 C 23.31 66.50 21.94 66.51 21.25 66.51 M 49.23 72.36 C 43.14 72.46 37.45 77.01 36.33 83.05 C 34.51 90.69 41.10 98.84 48.93 98.74 C 61.99 98.77 75.05 98.75 88.11 98.75 C 92.38 98.75 96.45 96.39 98.81 92.87 C 102.07 88.16 101.64 81.34 97.83 77.06 C 95.00 73.59 90.43 72.20 86.08 72.27 C 73.79 72.30 61.50 72.12 49.23 72.36 M 27.01 81.25 C 27.00 81.94 27.00 83.31 27.00 84.00 C 28.98 84.00 30.96 84.00 32.94 84.00 C 33.02 83.31 33.20 81.94 33.28 81.25 C 31.19 81.25 29.10 81.25 27.01 81.25 Z" />
<path fill="#0013ae" opacity="1.00" d=" M 40.44 54.62 C 43.32 54.01 46.50 53.91 49.35 54.73 C 51.58 56.21 50.72 59.45 50.58 61.71 C 49.14 64.38 45.48 63.32 43.00 63.52 C 38.04 64.42 37.21 56.79 40.44 54.62 M 42.00 57.50 C 42.00 58.19 42.00 59.56 42.00 60.25 C 43.91 60.25 45.83 60.25 47.74 60.25 C 47.75 59.56 47.75 58.19 47.75 57.50 C 45.83 57.50 43.92 57.50 42.00 57.50 Z" />
<path fill="#0013ae" opacity="1.00" d=" M 79.40 57.47 C 82.45 57.25 86.05 56.49 88.76 58.27 C 90.18 60.93 90.21 66.58 86.03 66.46 C 83.48 66.48 80.66 67.01 78.33 65.72 C 76.62 63.46 76.43 58.73 79.40 57.47 M 80.50 60.50 C 80.50 61.19 80.50 62.56 80.50 63.25 C 82.42 63.25 84.33 63.25 86.25 63.25 C 86.25 62.56 86.25 61.19 86.25 60.50 C 84.33 60.50 82.42 60.50 80.50 60.50 Z" />
<path fill="#0013ae" opacity="1.00" d=" M 46.43 75.48 C 48.58 74.96 50.81 75.00 53.00 74.98 C 63.67 75.02 74.34 75.00 85.01 74.98 C 88.09 75.01 91.45 75.11 94.01 77.06 C 98.80 80.32 99.76 87.71 96.10 92.17 C 93.80 95.27 89.78 96.32 86.09 96.24 C 74.04 96.23 61.99 96.32 49.94 96.20 C 45.27 96.38 40.61 93.44 39.23 88.90 C 37.31 83.43 40.76 76.84 46.43 75.48 M 56.94 78.19 C 58.10 79.99 59.00 81.93 59.71 83.94 C 60.74 83.97 61.78 84.01 62.82 84.04 C 62.63 82.10 62.62 80.15 62.82 78.21 C 60.86 78.24 58.90 78.23 56.94 78.19 M 74.33 78.18 C 74.41 80.13 74.37 82.08 74.29 84.04 C 75.30 84.01 76.32 83.98 77.34 83.95 C 78.08 81.97 78.99 80.06 80.05 78.22 C 78.14 78.24 76.24 78.23 74.33 78.18 M 42.23 86.96 C 42.78 90.88 47.10 93.54 50.88 92.62 C 53.66 92.10 55.26 89.60 56.56 87.33 C 55.87 87.32 54.51 87.30 53.83 87.29 C 52.33 89.64 49.15 91.28 46.65 89.38 C 43.46 87.42 44.41 81.77 48.18 81.19 C 51.67 79.97 53.13 84.81 56.59 84.24 C 55.49 82.14 54.29 79.73 51.86 78.94 C 46.98 76.64 40.83 81.74 42.23 86.96 M 66.46 79.30 C 63.76 81.97 68.78 86.02 70.78 82.76 C 73.01 80.11 68.60 76.61 66.46 79.30 M 80.52 83.87 C 81.21 83.89 82.57 83.94 83.25 83.96 C 84.60 82.26 86.48 80.42 88.89 81.14 C 93.01 81.84 93.64 88.16 89.81 89.77 C 87.23 91.11 84.81 89.24 83.25 87.30 C 82.58 87.30 81.23 87.30 80.56 87.30 C 81.72 89.14 82.77 91.30 84.90 92.19 C 89.20 94.31 94.93 90.88 95.00 86.07 C 95.48 81.40 90.56 77.35 86.09 78.63 C 83.35 79.17 81.86 81.69 80.52 83.87 M 48.87 87.19 C 50.68 87.69 51.50 84.59 49.68 84.13 C 47.80 83.64 46.99 86.68 48.87 87.19 M 87.42 84.46 C 85.55 84.70 87.23 88.20 88.54 86.48 C 90.37 86.25 88.20 83.74 87.42 84.46 M 62.06 88.03 C 59.46 90.57 63.62 94.67 66.05 92.05 C 68.66 89.65 64.56 85.40 62.06 88.03 M 70.67 88.62 C 68.44 91.45 73.74 94.71 75.35 91.46 C 77.53 88.66 72.23 85.27 70.67 88.62 Z" />
</g>
</svg>
