<?xml version="1.0" encoding="UTF-8" ?>
<!DOCTYPE svg PUBLIC "-//W3C//DTD SVG 1.1//EN" "http://www.w3.org/Graphics/SVG/1.1/DTD/svg11.dtd">
<svg width="138pt" height="94pt" viewBox="0 0 138 94" version="1.1" xmlns="http://www.w3.org/2000/svg">
<g id="#fefefeff">
<path fill="#fefefe" opacity="1.00" d=" M 35.09 15.84 C 34.81 14.47 36.02 12.59 37.49 13.57 C 45.28 17.88 52.78 22.72 60.47 27.21 C 60.49 28.71 60.51 30.21 60.53 31.72 C 53.14 27.37 45.81 22.94 38.44 18.56 C 37.22 17.79 35.93 17.04 35.09 15.84 Z" />
<path fill="#fefefe" opacity="1.00" d=" M 32.02 23.08 C 30.04 21.51 31.06 18.95 31.86 17.06 C 33.66 19.37 36.07 21.03 38.64 22.37 C 36.96 24.10 33.84 25.24 32.02 23.08 Z" />
<path fill="#fefefe" opacity="1.00" d=" M 63.24 27.21 C 63.56 24.72 64.92 21.51 67.98 21.88 C 70.78 21.97 71.86 24.86 71.95 27.24 C 69.05 27.25 66.14 27.25 63.24 27.21 Z" />
<path fill="#fefefe" opacity="1.00" d=" M 63.49 30.27 C 66.65 30.28 69.81 30.10 72.97 30.35 C 74.36 30.28 74.61 31.98 75.21 32.86 C 71.32 33.06 67.41 33.00 63.52 33.00 C 63.50 32.09 63.49 31.18 63.49 30.27 Z" />
<path fill="#fefefe" opacity="1.00" d=" M 71.18 36.01 C 72.52 36.00 73.87 35.99 75.21 35.97 C 76.89 39.25 78.52 42.55 80.17 45.84 C 78.27 46.67 76.48 47.71 74.86 48.99 C 73.68 44.65 72.41 40.34 71.18 36.01 Z" />
<path fill="#fefefe" opacity="1.00" d=" M 27.73 41.51 C 27.75 40.65 27.77 39.79 27.80 38.93 C 29.60 38.97 31.41 38.99 33.22 39.00 C 33.24 39.84 33.25 40.67 33.26 41.50 C 31.42 41.50 29.57 41.50 27.73 41.51 Z" />
<path fill="#fefefe" opacity="1.00" d=" M 36.28 39.13 C 38.19 39.04 40.09 39.02 42.00 38.96 C 42.00 39.59 42.00 40.86 42.00 41.49 C 40.20 41.50 38.40 41.50 36.59 41.51 C 36.52 40.91 36.36 39.72 36.28 39.13 Z" />
<path fill="#fefefe" opacity="1.00" d=" M 27.75 44.50 C 29.58 44.51 31.42 44.51 33.25 44.50 C 33.25 45.42 33.24 46.33 33.24 47.25 C 31.41 47.24 29.59 47.24 27.76 47.24 C 27.75 46.33 27.75 45.42 27.75 44.50 Z" />
<path fill="#fefefe" opacity="1.00" d=" M 36.50 44.51 C 38.34 44.51 40.19 44.50 42.04 44.48 C 41.99 45.44 41.94 46.41 41.88 47.37 C 40.09 47.29 38.30 47.25 36.51 47.21 C 36.50 46.31 36.50 45.41 36.50 44.51 Z" />
<path fill="#fefefe" opacity="1.00" d=" M 76.51 56.37 C 75.93 53.26 77.63 49.52 81.01 49.09 C 83.89 48.32 86.25 50.62 87.46 52.96 C 83.58 53.09 78.50 51.90 76.51 56.37 Z" />
<path fill="#fefefe" opacity="1.00" d=" M 90.74 50.70 C 94.49 49.98 98.34 50.21 102.13 50.29 C 103.95 50.06 104.87 51.86 106.02 52.90 C 101.76 53.06 97.50 52.98 93.24 53.00 C 93.24 56.84 93.25 60.67 93.25 64.50 C 98.91 64.49 104.58 64.53 110.24 64.48 C 110.25 67.24 110.24 69.99 110.25 72.74 C 105.83 72.72 101.42 72.79 97.01 72.77 C 94.57 72.96 92.75 71.11 90.77 70.04 C 90.73 63.59 90.78 57.14 90.74 50.70 Z" />
<path fill="#fefefe" opacity="1.00" d=" M 80.48 56.42 C 82.73 55.64 85.18 56.09 87.51 56.01 C 87.49 58.75 87.50 61.50 87.49 64.25 C 84.43 64.24 81.38 64.24 78.33 64.26 C 78.97 61.63 79.46 58.94 80.48 56.42 M 83.07 58.68 C 80.85 58.85 81.84 62.50 83.82 61.70 C 85.72 61.46 85.07 58.05 83.07 58.68 Z" />
<path fill="#fefefe" opacity="1.00" d=" M 96.24 56.00 C 100.17 55.99 104.10 56.03 108.02 55.96 C 109.26 57.59 110.16 59.43 110.56 61.45 C 105.79 61.54 101.03 61.48 96.26 61.50 C 96.25 59.67 96.25 57.84 96.24 56.00 Z" />
<path fill="#fefefe" opacity="1.00" d=" M 27.92 67.64 C 47.78 67.32 67.64 67.59 87.49 67.50 C 87.50 68.13 87.50 69.37 87.50 70.00 C 82.31 70.07 77.11 69.86 71.93 70.06 C 70.00 69.94 68.72 71.46 67.53 72.72 C 63.67 72.33 59.11 74.00 55.86 71.26 C 52.96 69.00 48.84 70.04 46.42 72.49 C 43.14 69.29 37.74 69.25 34.65 72.73 C 32.58 72.74 30.46 72.95 28.42 72.50 C 27.26 71.20 28.03 69.20 27.92 67.64 Z" />
<path fill="#fefefe" opacity="1.00" d=" M 39.37 73.40 C 42.44 72.25 45.93 75.92 44.30 78.87 C 43.28 81.75 38.87 82.25 37.30 79.60 C 35.56 77.53 36.82 74.06 39.37 73.40 M 40.22 75.76 C 38.80 75.60 38.48 78.66 40.09 78.71 C 42.70 79.80 42.88 74.98 40.22 75.76 Z" />
<path fill="#fefefe" opacity="1.00" d=" M 50.44 73.50 C 53.23 72.19 56.74 74.96 55.98 77.98 C 55.61 81.16 51.09 82.48 49.04 80.02 C 47.08 78.11 47.89 74.45 50.44 73.50 M 50.55 76.56 C 49.76 78.28 52.13 79.65 53.26 78.26 C 54.68 76.57 51.53 74.39 50.55 76.56 Z" />
<path fill="#fefefe" opacity="1.00" d=" M 70.78 78.39 C 71.10 76.69 69.83 73.93 71.99 73.11 C 75.64 72.80 79.30 73.10 82.96 72.96 C 82.36 74.79 81.96 76.67 81.61 78.56 C 78.00 78.50 74.39 78.51 70.78 78.39 Z" />
<path fill="#fefefe" opacity="1.00" d=" M 87.47 73.55 C 90.59 71.91 94.46 75.72 92.83 78.86 C 91.72 81.83 87.21 82.22 85.68 79.42 C 84.21 77.47 85.25 74.42 87.47 73.55 M 87.70 76.58 C 86.74 77.45 88.72 79.74 89.74 78.66 C 92.41 77.70 88.88 73.78 87.70 76.58 Z" />
<path fill="#fefefe" opacity="1.00" d=" M 96.19 76.03 C 100.92 75.97 105.65 76.03 110.38 75.98 C 110.23 76.62 109.93 77.90 109.77 78.54 C 105.28 78.45 100.78 78.51 96.29 78.51 C 96.27 77.89 96.22 76.65 96.19 76.03 Z" />
</g>
<g id="#0113aeff">
<path fill="#0113ae" opacity="1.00" d=" M 33.53 11.52 C 35.32 9.41 38.46 10.23 40.51 11.48 C 47.22 15.50 53.93 19.52 60.62 23.57 C 62.26 19.81 66.75 17.54 70.63 19.35 C 73.96 20.55 74.85 24.30 75.26 27.42 C 78.65 29.46 77.13 33.76 79.06 36.68 C 80.69 39.59 81.84 42.77 83.69 45.55 C 85.23 46.59 86.89 47.45 88.40 48.54 C 92.90 46.12 98.24 47.60 103.12 47.28 C 106.10 46.97 107.52 49.95 109.07 51.92 C 110.90 54.75 113.78 57.38 113.50 61.04 C 113.49 66.35 113.57 71.67 113.47 76.98 C 113.54 79.06 112.16 81.29 109.97 81.55 C 105.02 82.05 100.03 81.57 95.06 81.81 C 91.86 85.32 86.33 85.30 83.14 81.79 C 78.91 81.56 74.60 82.17 70.41 81.40 C 68.01 80.72 67.67 78.07 67.29 76.00 C 64.68 76.00 62.06 76.00 59.45 76.00 C 59.08 78.83 58.54 82.23 55.59 83.54 C 52.51 85.38 48.87 84.31 46.29 82.15 C 44.23 83.67 41.71 85.15 39.06 84.29 C 35.19 83.66 33.09 79.70 33.25 76.05 C 30.54 75.87 26.90 76.65 25.30 73.80 C 24.49 71.26 24.21 68.08 25.86 65.82 C 27.05 64.21 29.22 64.32 31.00 64.24 C 45.69 64.26 60.39 64.22 75.09 64.27 C 76.11 61.98 75.41 59.84 74.16 57.84 C 71.96 50.60 70.02 43.27 67.90 36.00 C 65.01 35.89 61.76 36.62 59.25 34.78 C 53.33 31.14 47.36 27.62 41.42 24.02 C 39.97 25.46 38.31 26.66 36.50 27.61 C 36.50 30.32 36.50 33.03 36.50 35.74 C 39.33 35.75 42.17 35.75 45.00 35.75 C 45.00 40.58 45.00 45.42 45.00 50.25 C 38.25 50.25 31.50 50.25 24.75 50.25 C 24.75 45.42 24.75 40.58 24.75 35.75 C 27.58 35.75 30.41 35.75 33.25 35.74 C 33.25 33.00 33.25 30.26 33.22 27.52 C 30.18 26.27 27.36 23.64 27.67 20.07 C 27.41 16.06 31.32 14.18 33.53 11.52 M 35.09 15.84 C 35.93 17.04 37.22 17.79 38.44 18.56 C 45.81 22.94 53.14 27.37 60.53 31.72 C 60.51 30.21 60.49 28.71 60.47 27.21 C 52.78 22.72 45.28 17.88 37.49 13.57 C 36.02 12.59 34.81 14.47 35.09 15.84 M 32.02 23.08 C 33.84 25.24 36.96 24.10 38.64 22.37 C 36.07 21.03 33.66 19.37 31.86 17.06 C 31.06 18.95 30.04 21.51 32.02 23.08 M 63.24 27.21 C 66.14 27.25 69.05 27.25 71.95 27.24 C 71.86 24.86 70.78 21.97 67.98 21.88 C 64.92 21.51 63.56 24.72 63.24 27.21 M 63.49 30.27 C 63.49 31.18 63.50 32.09 63.52 33.00 C 67.41 33.00 71.32 33.06 75.21 32.86 C 74.61 31.98 74.36 30.28 72.97 30.35 C 69.81 30.10 66.65 30.28 63.49 30.27 M 71.18 36.01 C 72.41 40.34 73.68 44.65 74.86 48.99 C 76.48 47.71 78.27 46.67 80.17 45.84 C 78.52 42.55 76.89 39.25 75.21 35.97 C 73.87 35.99 72.52 36.00 71.18 36.01 M 27.73 41.51 C 29.57 41.50 31.42 41.50 33.26 41.50 C 33.25 40.67 33.24 39.84 33.22 39.00 C 31.41 38.99 29.60 38.97 27.80 38.93 C 27.77 39.79 27.75 40.65 27.73 41.51 M 36.28 39.13 C 36.36 39.72 36.52 40.91 36.59 41.51 C 38.40 41.50 40.20 41.50 42.00 41.49 C 42.00 40.86 42.00 39.59 42.00 38.96 C 40.09 39.02 38.19 39.04 36.28 39.13 M 27.75 44.50 C 27.75 45.42 27.75 46.33 27.76 47.24 C 29.59 47.24 31.41 47.24 33.24 47.25 C 33.24 46.33 33.25 45.42 33.25 44.50 C 31.42 44.51 29.58 44.51 27.75 44.50 M 36.50 44.51 C 36.50 45.41 36.50 46.31 36.51 47.21 C 38.30 47.25 40.09 47.29 41.88 47.37 C 41.94 46.41 41.99 45.44 42.04 44.48 C 40.19 44.50 38.34 44.51 36.50 44.51 M 76.51 56.37 C 78.50 51.90 83.58 53.09 87.46 52.96 C 86.25 50.62 83.89 48.32 81.01 49.09 C 77.63 49.52 75.93 53.26 76.51 56.37 M 90.74 50.70 C 90.78 57.14 90.73 63.59 90.77 70.04 C 92.75 71.11 94.57 72.96 97.01 72.77 C 101.42 72.79 105.83 72.72 110.25 72.74 C 110.24 69.99 110.25 67.24 110.24 64.48 C 104.58 64.53 98.91 64.49 93.25 64.50 C 93.25 60.67 93.24 56.84 93.24 53.00 C 97.50 52.98 101.76 53.06 106.02 52.90 C 104.87 51.86 103.95 50.06 102.13 50.29 C 98.34 50.21 94.49 49.98 90.74 50.70 M 80.48 56.42 C 79.46 58.94 78.97 61.63 78.33 64.26 C 81.38 64.24 84.43 64.24 87.49 64.25 C 87.50 61.50 87.49 58.75 87.51 56.01 C 85.18 56.09 82.73 55.64 80.48 56.42 M 96.24 56.00 C 96.25 57.84 96.25 59.67 96.26 61.50 C 101.03 61.48 105.79 61.54 110.56 61.45 C 110.16 59.43 109.26 57.59 108.02 55.96 C 104.10 56.03 100.17 55.99 96.24 56.00 M 27.92 67.64 C 28.03 69.20 27.26 71.20 28.42 72.50 C 30.46 72.95 32.58 72.74 34.65 72.73 C 37.74 69.25 43.14 69.29 46.42 72.49 C 48.84 70.04 52.96 69.00 55.86 71.26 C 59.11 74.00 63.67 72.33 67.53 72.72 C 68.72 71.46 70.00 69.94 71.93 70.06 C 77.11 69.86 82.31 70.07 87.50 70.00 C 87.50 69.37 87.50 68.13 87.49 67.50 C 67.64 67.59 47.78 67.32 27.92 67.64 M 39.37 73.40 C 36.82 74.06 35.56 77.53 37.30 79.60 C 38.87 82.25 43.28 81.75 44.30 78.87 C 45.93 75.92 42.44 72.25 39.37 73.40 M 50.44 73.50 C 47.89 74.45 47.08 78.11 49.04 80.02 C 51.09 82.48 55.61 81.16 55.98 77.98 C 56.74 74.96 53.23 72.19 50.44 73.50 M 70.78 78.39 C 74.39 78.51 78.00 78.50 81.61 78.56 C 81.96 76.67 82.36 74.79 82.96 72.96 C 79.30 73.10 75.64 72.80 71.99 73.11 C 69.83 73.93 71.10 76.69 70.78 78.39 M 87.47 73.55 C 85.25 74.42 84.21 77.47 85.68 79.42 C 87.21 82.22 91.72 81.83 92.83 78.86 C 94.46 75.72 90.59 71.91 87.47 73.55 M 96.19 76.03 C 96.22 76.65 96.27 77.89 96.29 78.51 C 100.78 78.51 105.28 78.45 109.77 78.54 C 109.93 77.90 110.23 76.62 110.38 75.98 C 105.65 76.03 100.92 75.97 96.19 76.03 Z" />
<path fill="#0113ae" opacity="1.00" d=" M 83.07 58.68 C 85.07 58.05 85.72 61.46 83.82 61.70 C 81.84 62.50 80.85 58.85 83.07 58.68 Z" />
<path fill="#0113ae" opacity="1.00" d=" M 40.22 75.76 C 42.88 74.98 42.70 79.80 40.09 78.71 C 38.48 78.66 38.80 75.60 40.22 75.76 Z" />
<path fill="#0113ae" opacity="1.00" d=" M 50.55 76.56 C 51.53 74.39 54.68 76.57 53.26 78.26 C 52.13 79.65 49.76 78.28 50.55 76.56 Z" />
<path fill="#0113ae" opacity="1.00" d=" M 87.70 76.58 C 88.88 73.78 92.41 77.70 89.74 78.66 C 88.72 79.74 86.74 77.45 87.70 76.58 Z" />
</g>
</svg>
