<?xml version="1.0" encoding="UTF-8" ?>
<!DOCTYPE svg PUBLIC "-//W3C//DTD SVG 1.1//EN" "http://www.w3.org/Graphics/SVG/1.1/DTD/svg11.dtd">
<svg width="137pt" height="112pt" viewBox="0 0 137 112" version="1.1" xmlns="http://www.w3.org/2000/svg">
<g id="#fefefeff">
<path fill="#fefefe" opacity="1.00" d=" M 87.52 14.24 C 95.42 14.26 103.33 14.25 111.24 14.25 C 111.24 14.94 111.25 16.31 111.25 17.00 C 103.33 17.00 95.41 17.00 87.49 17.00 C 87.50 16.31 87.51 14.93 87.52 14.24 Z" />
<path fill="#fefefe" opacity="1.00" d=" M 90.50 20.26 C 96.42 20.25 102.33 20.25 108.25 20.26 C 108.14 25.84 108.47 31.43 108.10 37.00 C 107.83 37.21 107.27 37.63 106.99 37.84 C 101.52 37.86 95.81 38.72 90.48 37.27 C 90.53 31.60 90.49 25.93 90.50 20.26 Z" />
<path fill="#fefefe" opacity="1.00" d=" M 84.51 25.59 C 85.42 25.15 86.34 24.70 87.26 24.26 C 87.24 27.15 87.24 30.05 87.26 32.94 C 86.35 32.71 85.43 32.48 84.52 32.24 C 84.51 30.03 84.50 27.81 84.51 25.59 Z" />
<path fill="#fefefe" opacity="1.00" d=" M 46.10 36.21 C 57.79 32.94 69.53 29.89 81.24 26.70 C 81.24 28.54 81.25 30.39 81.25 32.24 C 70.14 35.04 59.01 37.81 47.89 40.58 C 47.29 39.13 46.70 37.67 46.10 36.21 Z" />
<path fill="#fefefe" opacity="1.00" d=" M 27.73 39.84 C 32.40 37.54 37.87 37.89 42.90 36.90 C 43.39 39.06 45.96 41.74 43.71 43.66 C 40.00 47.26 37.10 53.70 30.94 52.75 C 24.64 52.36 22.30 43.11 27.73 39.84 M 30.16 41.25 C 27.02 42.30 26.21 47.16 28.96 49.08 C 31.58 51.40 36.43 49.57 36.47 45.93 C 36.99 42.57 33.18 39.97 30.16 41.25 Z" />
<path fill="#fefefe" opacity="1.00" d=" M 46.68 44.90 C 49.40 43.22 52.61 42.83 55.64 42.02 C 57.35 44.30 59.07 46.59 60.76 48.89 C 56.06 47.59 51.33 46.40 46.68 44.90 Z" />
<path fill="#fefefe" opacity="1.00" d=" M 31.31 44.11 C 33.23 43.34 34.31 46.58 32.19 46.97 C 30.42 47.55 29.52 44.61 31.31 44.11 Z" />
<path fill="#fefefe" opacity="1.00" d=" M 44.36 47.89 C 51.70 49.69 58.94 51.91 66.25 53.84 C 66.38 56.59 65.81 59.50 66.72 62.15 C 68.14 64.71 71.60 64.46 73.65 66.20 C 75.76 68.57 77.48 71.25 79.42 73.75 C 76.15 73.75 72.88 73.75 69.60 73.75 C 69.38 71.66 69.69 69.32 68.38 67.52 C 67.37 65.79 65.29 65.36 63.57 64.68 C 63.54 62.73 63.46 60.72 62.15 59.15 C 54.53 58.13 47.42 54.86 40.02 52.89 C 41.48 51.24 42.93 49.57 44.36 47.89 Z" />
<path fill="#fefefe" opacity="1.00" d=" M 69.92 52.99 C 76.41 55.03 82.82 57.26 89.28 59.39 C 88.24 61.83 87.23 64.28 86.24 66.75 C 80.60 64.82 74.99 62.77 69.37 60.78 C 69.63 59.48 70.19 58.28 70.80 57.11 C 69.94 60.17 74.92 59.42 73.94 57.10 C 73.32 54.64 70.48 57.11 69.23 57.71 C 69.40 56.53 69.75 54.17 69.92 52.99 Z" />
<path fill="#fefefe" opacity="1.00" d=" M 93.12 59.19 C 95.05 59.49 97.52 58.64 99.09 59.97 C 99.39 62.47 99.24 65.00 99.26 67.51 C 97.70 68.04 95.45 67.71 94.60 69.42 C 93.75 70.80 93.10 72.28 92.39 73.73 C 90.56 73.74 88.72 73.74 86.89 73.74 C 88.99 68.90 90.82 63.94 93.12 59.19 M 93.53 62.62 C 92.10 64.37 95.54 66.45 96.35 64.17 C 97.36 62.43 94.45 60.89 93.53 62.62 Z" />
<path fill="#fefefe" opacity="1.00" d=" M 57.57 62.22 C 58.48 62.25 59.39 62.27 60.30 62.29 C 60.26 63.25 60.22 64.20 60.17 65.15 C 59.46 65.07 58.05 64.89 57.34 64.80 C 57.39 64.15 57.51 62.87 57.57 62.22 Z" />
<path fill="#fefefe" opacity="1.00" d=" M 46.41 68.52 C 50.83 67.42 55.50 68.24 60.02 67.98 C 62.29 67.98 66.11 67.76 66.16 70.97 C 66.39 78.93 66.18 86.91 66.24 94.88 C 65.58 94.82 64.28 94.71 63.62 94.65 C 63.22 87.58 63.79 80.48 63.38 73.41 C 63.02 70.32 59.27 70.81 57.01 70.72 C 53.81 70.94 50.33 70.11 47.33 71.52 C 45.42 73.72 43.97 76.33 42.77 78.97 C 42.08 80.49 43.43 81.85 43.84 83.25 C 38.91 84.85 36.09 89.70 36.10 94.74 C 33.49 94.74 30.86 94.88 28.26 94.62 C 27.99 94.01 27.44 92.79 27.17 92.18 C 29.26 91.78 32.55 92.74 33.35 90.00 C 33.57 88.08 33.84 85.97 32.97 84.18 C 31.72 82.38 29.24 82.97 27.36 82.56 C 27.54 82.22 27.91 81.54 28.09 81.20 C 31.66 80.26 35.24 79.36 38.83 78.51 C 41.45 75.25 43.40 71.44 46.41 68.52 Z" />
<path fill="#fefefe" opacity="1.00" d=" M 79.17 67.84 C 81.07 68.49 82.97 69.15 84.87 69.81 C 84.44 70.98 84.01 72.15 83.58 73.32 C 81.98 71.60 80.55 69.74 79.17 67.84 Z" />
<path fill="#fefefe" opacity="1.00" d=" M 97.26 71.13 C 98.91 71.06 100.57 71.00 102.23 70.95 C 102.25 71.87 102.27 72.79 102.29 73.70 C 100.26 73.73 98.24 73.75 96.21 73.78 C 96.56 72.90 96.91 72.01 97.26 71.13 Z" />
<path fill="#fefefe" opacity="1.00" d=" M 49.37 74.01 C 53.00 73.99 56.62 74.00 60.25 74.00 C 60.25 75.42 60.24 76.83 60.24 78.24 C 55.79 78.25 51.34 78.25 46.89 78.24 C 47.72 76.83 48.55 75.42 49.37 74.01 Z" />
<path fill="#fefefe" opacity="1.00" d=" M 68.91 77.20 C 81.01 76.74 93.13 77.12 105.23 77.00 L 105.27 78.24 C 94.14 78.25 83.01 78.25 71.88 78.25 C 70.72 78.35 69.73 78.00 68.91 77.20 Z" />
<path fill="#fefefe" opacity="1.00" d=" M 46.68 81.68 C 51.19 81.35 55.72 81.55 60.25 81.50 C 60.25 85.91 60.25 90.32 60.25 94.74 C 59.60 94.74 58.32 94.76 57.68 94.77 C 57.44 91.75 56.96 88.47 54.68 86.26 C 52.65 83.73 49.15 83.55 46.68 81.68 Z" />
<path fill="#fefefe" opacity="1.00" d=" M 69.50 81.50 C 71.42 81.50 73.33 81.50 75.25 81.50 C 75.25 85.92 75.25 90.33 75.25 94.75 C 73.33 94.75 71.41 94.75 69.50 94.75 C 69.50 90.33 69.50 85.92 69.50 81.50 Z" />
<path fill="#fefefe" opacity="1.00" d=" M 78.55 81.50 C 83.43 81.50 88.32 81.50 93.21 81.50 C 93.24 82.52 93.30 84.55 93.32 85.57 C 89.01 82.12 82.67 82.03 78.40 85.60 C 78.44 84.58 78.51 82.52 78.55 81.50 Z" />
<path fill="#fefefe" opacity="1.00" d=" M 96.50 81.50 C 99.42 81.50 102.33 81.50 105.25 81.50 C 105.25 85.92 105.25 90.33 105.25 94.75 C 102.33 94.75 99.42 94.75 96.50 94.75 C 96.50 90.33 96.50 85.92 96.50 81.50 Z" />
<path fill="#fefefe" opacity="1.00" d=" M 27.47 86.05 C 28.16 86.03 29.54 86.00 30.24 85.98 C 30.24 86.89 30.25 87.81 30.26 88.73 C 29.35 88.74 28.43 88.75 27.52 88.76 C 27.51 88.08 27.48 86.73 27.47 86.05 Z" />
<path fill="#fefefe" opacity="1.00" d=" M 44.48 86.63 C 49.54 84.60 55.48 89.83 53.94 95.09 C 53.03 99.94 46.56 102.44 42.67 99.33 C 37.85 96.32 39.13 88.28 44.48 86.63 M 45.16 89.21 C 42.18 90.21 41.29 94.42 43.50 96.62 C 45.92 99.49 51.41 97.74 51.47 93.89 C 51.98 90.54 48.21 87.82 45.16 89.21 Z" />
<path fill="#fefefe" opacity="1.00" d=" M 83.44 86.65 C 88.51 84.56 94.48 89.84 92.91 95.09 C 92.04 99.97 85.53 102.44 81.66 99.32 C 76.85 96.31 78.10 88.31 83.44 86.65 M 84.09 89.18 C 80.92 90.30 80.25 95.13 82.98 97.08 C 85.32 99.01 89.42 97.94 90.24 94.91 C 91.70 91.34 87.49 87.66 84.09 89.18 Z" />
<path fill="#fefefe" opacity="1.00" d=" M 46.31 92.06 C 48.24 91.26 49.29 94.56 47.17 94.92 C 45.38 95.50 44.55 92.58 46.31 92.06 Z" />
<path fill="#fefefe" opacity="1.00" d=" M 85.32 92.06 C 87.26 91.29 88.21 94.65 86.10 94.94 C 84.30 95.45 83.53 92.54 85.32 92.06 Z" />
</g>
<g id="#0013aeff">
<path fill="#0013ae" opacity="1.00" d=" M 86.03 11.15 C 94.02 10.78 102.04 11.11 110.05 10.99 C 115.74 9.76 116.19 19.25 111.49 20.55 C 111.42 25.99 111.67 31.44 111.41 36.88 C 111.47 39.61 108.60 41.41 106.09 41.22 C 101.07 41.21 96.02 41.48 91.01 41.05 C 88.47 40.83 87.50 38.25 86.94 36.14 C 85.14 35.81 83.29 35.08 81.44 35.58 C 74.00 37.41 66.57 39.32 59.13 41.15 C 61.66 44.19 63.66 47.69 66.47 50.48 C 68.29 51.01 70.22 49.46 72.07 50.21 C 78.14 52.00 84.03 54.32 90.10 56.10 C 93.92 56.84 99.31 54.15 101.88 58.22 C 103.01 61.17 102.36 64.42 102.46 67.50 C 105.16 68.35 105.81 70.98 105.55 73.52 C 106.84 74.34 108.70 75.19 108.45 77.06 C 108.61 82.04 108.44 87.02 108.53 92.01 C 108.41 94.00 108.92 96.64 106.82 97.81 C 103.05 98.25 99.24 97.86 95.46 98.08 C 93.46 101.88 89.32 104.52 84.94 103.98 C 81.10 103.83 77.99 101.17 76.11 98.00 C 69.55 98.05 62.99 97.88 56.43 98.11 C 54.18 102.84 48.35 105.25 43.41 103.47 C 40.59 102.67 38.74 100.29 37.13 98.01 C 33.13 97.36 27.21 99.82 24.75 95.51 C 23.87 90.62 24.05 85.42 24.61 80.49 C 26.99 76.38 32.83 77.14 36.80 75.59 C 39.33 72.43 41.23 68.73 44.19 65.95 C 47.24 64.31 50.91 65.21 54.22 65.00 C 54.25 63.60 54.28 62.20 54.32 60.80 C 48.45 59.02 42.61 57.12 36.74 55.35 C 32.27 56.86 26.63 56.32 23.63 52.31 C 19.18 47.24 21.52 38.04 28.01 36.00 C 33.79 34.28 39.96 34.45 45.78 32.83 C 57.15 29.74 68.54 26.69 79.93 23.65 C 82.53 22.98 84.91 21.70 87.31 20.53 C 83.36 19.51 82.98 13.28 86.03 11.15 M 87.52 14.24 C 87.51 14.93 87.50 16.31 87.49 17.00 C 95.41 17.00 103.33 17.00 111.25 17.00 C 111.25 16.31 111.24 14.94 111.24 14.25 C 103.33 14.25 95.42 14.26 87.52 14.24 M 90.50 20.26 C 90.49 25.93 90.53 31.60 90.48 37.27 C 95.81 38.72 101.52 37.86 106.99 37.84 C 107.27 37.63 107.83 37.21 108.10 37.00 C 108.47 31.43 108.14 25.84 108.25 20.26 C 102.33 20.25 96.42 20.25 90.50 20.26 M 84.51 25.59 C 84.50 27.81 84.51 30.03 84.52 32.24 C 85.43 32.48 86.35 32.71 87.26 32.94 C 87.24 30.05 87.24 27.15 87.26 24.26 C 86.34 24.70 85.42 25.15 84.51 25.59 M 46.10 36.21 C 46.70 37.67 47.29 39.13 47.89 40.58 C 59.01 37.81 70.14 35.04 81.25 32.24 C 81.25 30.39 81.24 28.54 81.24 26.70 C 69.53 29.89 57.79 32.94 46.10 36.21 M 27.73 39.84 C 22.30 43.11 24.64 52.36 30.94 52.75 C 37.10 53.70 40.00 47.26 43.71 43.66 C 45.96 41.74 43.39 39.06 42.90 36.90 C 37.87 37.89 32.40 37.54 27.73 39.84 M 46.68 44.90 C 51.33 46.40 56.06 47.59 60.76 48.89 C 59.07 46.59 57.35 44.30 55.64 42.02 C 52.61 42.83 49.40 43.22 46.68 44.90 M 44.36 47.89 C 42.93 49.57 41.48 51.24 40.02 52.89 C 47.42 54.86 54.53 58.13 62.15 59.15 C 63.46 60.72 63.54 62.73 63.57 64.68 C 65.29 65.36 67.37 65.79 68.38 67.52 C 69.69 69.32 69.38 71.66 69.60 73.75 C 72.88 73.75 76.15 73.75 79.42 73.75 C 77.48 71.25 75.76 68.57 73.65 66.20 C 71.60 64.46 68.14 64.71 66.72 62.15 C 65.81 59.50 66.38 56.59 66.25 53.84 C 58.94 51.91 51.70 49.69 44.36 47.89 M 69.92 52.99 C 69.75 54.17 69.40 56.53 69.23 57.71 C 70.48 57.11 73.32 54.64 73.94 57.10 C 74.92 59.42 69.94 60.17 70.80 57.11 C 70.19 58.28 69.63 59.48 69.37 60.78 C 74.99 62.77 80.60 64.82 86.24 66.75 C 87.23 64.28 88.24 61.83 89.28 59.39 C 82.82 57.26 76.41 55.03 69.92 52.99 M 93.12 59.19 C 90.82 63.94 88.99 68.90 86.89 73.74 C 88.72 73.74 90.56 73.74 92.39 73.73 C 93.10 72.28 93.75 70.80 94.60 69.42 C 95.45 67.71 97.70 68.04 99.26 67.51 C 99.24 65.00 99.39 62.47 99.09 59.97 C 97.52 58.64 95.05 59.49 93.12 59.19 M 57.57 62.22 C 57.51 62.87 57.39 64.15 57.34 64.80 C 58.05 64.89 59.46 65.07 60.17 65.15 C 60.22 64.20 60.26 63.25 60.30 62.29 C 59.39 62.27 58.48 62.25 57.57 62.22 M 46.41 68.52 C 43.40 71.44 41.45 75.25 38.83 78.51 C 35.24 79.36 31.66 80.26 28.09 81.20 C 27.91 81.54 27.54 82.22 27.36 82.56 C 29.24 82.97 31.72 82.38 32.97 84.18 C 33.84 85.97 33.57 88.08 33.35 90.00 C 32.55 92.74 29.26 91.78 27.17 92.18 C 27.44 92.79 27.99 94.01 28.26 94.62 C 30.86 94.88 33.49 94.74 36.10 94.74 C 36.09 89.70 38.91 84.85 43.84 83.25 C 43.43 81.85 42.08 80.49 42.77 78.97 C 43.97 76.33 45.42 73.72 47.33 71.52 C 50.33 70.11 53.81 70.94 57.01 70.72 C 59.27 70.81 63.02 70.32 63.38 73.41 C 63.79 80.48 63.22 87.58 63.62 94.65 C 64.28 94.71 65.58 94.82 66.24 94.88 C 66.18 86.91 66.39 78.93 66.16 70.97 C 66.11 67.76 62.29 67.98 60.02 67.98 C 55.50 68.24 50.83 67.42 46.41 68.52 M 79.17 67.84 C 80.55 69.74 81.98 71.60 83.58 73.32 C 84.01 72.15 84.44 70.98 84.87 69.81 C 82.97 69.15 81.07 68.49 79.17 67.84 M 97.26 71.13 C 96.91 72.01 96.56 72.90 96.21 73.78 C 98.24 73.75 100.26 73.73 102.29 73.70 C 102.27 72.79 102.25 71.87 102.23 70.95 C 100.57 71.00 98.91 71.06 97.26 71.13 M 49.37 74.01 C 48.55 75.42 47.72 76.83 46.89 78.24 C 51.34 78.25 55.79 78.25 60.24 78.24 C 60.24 76.83 60.25 75.42 60.25 74.00 C 56.62 74.00 53.00 73.99 49.37 74.01 M 68.91 77.20 C 69.73 78.00 70.72 78.35 71.88 78.25 C 83.01 78.25 94.14 78.25 105.27 78.24 L 105.23 77.00 C 93.13 77.12 81.01 76.74 68.91 77.20 M 46.68 81.68 C 49.15 83.55 52.65 83.73 54.68 86.26 C 56.96 88.47 57.44 91.75 57.68 94.77 C 58.32 94.76 59.60 94.74 60.25 94.74 C 60.25 90.32 60.25 85.91 60.25 81.50 C 55.72 81.55 51.19 81.35 46.68 81.68 M 69.50 81.50 C 69.50 85.92 69.50 90.33 69.50 94.75 C 71.41 94.75 73.33 94.75 75.25 94.75 C 75.25 90.33 75.25 85.92 75.25 81.50 C 73.33 81.50 71.42 81.50 69.50 81.50 M 78.55 81.50 C 78.51 82.52 78.44 84.58 78.40 85.60 C 82.67 82.03 89.01 82.12 93.32 85.57 C 93.30 84.55 93.24 82.52 93.21 81.50 C 88.32 81.50 83.43 81.50 78.55 81.50 M 96.50 81.50 C 96.50 85.92 96.50 90.33 96.50 94.75 C 99.42 94.75 102.33 94.75 105.25 94.75 C 105.25 90.33 105.25 85.92 105.25 81.50 C 102.33 81.50 99.42 81.50 96.50 81.50 M 27.47 86.05 C 27.48 86.73 27.51 88.08 27.52 88.76 C 28.43 88.75 29.35 88.74 30.26 88.73 C 30.25 87.81 30.24 86.89 30.24 85.98 C 29.54 86.00 28.16 86.03 27.47 86.05 M 44.48 86.63 C 39.13 88.28 37.85 96.32 42.67 99.33 C 46.56 102.44 53.03 99.94 53.94 95.09 C 55.48 89.83 49.54 84.60 44.48 86.63 M 83.44 86.65 C 78.10 88.31 76.85 96.31 81.66 99.32 C 85.53 102.44 92.04 99.97 92.91 95.09 C 94.48 89.84 88.51 84.56 83.44 86.65 Z" />
<path fill="#0013ae" opacity="1.00" d=" M 30.16 41.25 C 33.18 39.97 36.99 42.57 36.47 45.93 C 36.43 49.57 31.58 51.40 28.96 49.08 C 26.21 47.16 27.02 42.30 30.16 41.25 M 31.31 44.11 C 29.52 44.61 30.42 47.55 32.19 46.97 C 34.31 46.58 33.23 43.34 31.31 44.11 Z" />
<path fill="#0013ae" opacity="1.00" d=" M 93.53 62.62 C 94.45 60.89 97.36 62.43 96.35 64.17 C 95.54 66.45 92.10 64.37 93.53 62.62 Z" />
<path fill="#0013ae" opacity="1.00" d=" M 45.16 89.21 C 48.21 87.82 51.98 90.54 51.47 93.89 C 51.41 97.74 45.92 99.49 43.50 96.62 C 41.29 94.42 42.18 90.21 45.16 89.21 M 46.31 92.06 C 44.55 92.58 45.38 95.50 47.17 94.92 C 49.29 94.56 48.24 91.26 46.31 92.06 Z" />
<path fill="#0013ae" opacity="1.00" d=" M 84.09 89.18 C 87.49 87.66 91.70 91.34 90.24 94.91 C 89.42 97.94 85.32 99.01 82.98 97.08 C 80.25 95.13 80.92 90.30 84.09 89.18 M 85.32 92.06 C 83.53 92.54 84.30 95.45 86.10 94.94 C 88.21 94.65 87.26 91.29 85.32 92.06 Z" />
</g>
</svg>
