<?xml version="1.0" encoding="UTF-8" ?>
<!DOCTYPE svg PUBLIC "-//W3C//DTD SVG 1.1//EN" "http://www.w3.org/Graphics/SVG/1.1/DTD/svg11.dtd">
<svg width="127pt" height="108pt" viewBox="0 0 127 108" version="1.1" xmlns="http://www.w3.org/2000/svg">
<g id="#fefefeff">
<path fill="#fefefe" opacity="1.00" d=" M 43.25 15.00 C 43.88 15.00 45.12 15.00 45.75 15.00 C 45.75 28.34 45.73 41.68 45.77 55.02 C 45.93 59.28 44.26 63.27 43.17 67.31 C 43.36 49.88 43.20 32.44 43.25 15.00 Z" />
<path fill="#fefefe" opacity="1.00" d=" M 24.25 26.00 C 24.88 26.00 26.12 26.00 26.75 26.00 C 26.74 36.84 26.76 47.68 26.73 58.52 C 26.11 58.51 24.87 58.49 24.25 58.48 C 24.26 47.65 24.25 36.83 24.25 26.00 Z" />
<path fill="#fefefe" opacity="1.00" d=" M 29.76 28.74 C 31.07 28.77 32.38 28.78 33.70 28.78 C 34.52 30.61 34.45 33.87 37.08 34.02 C 37.87 34.12 39.46 34.34 40.25 34.45 C 40.24 40.58 40.24 46.72 40.25 52.85 C 38.72 53.13 36.94 52.76 35.58 53.65 C 34.45 55.00 34.22 56.84 33.65 58.46 C 32.35 58.46 31.05 58.48 29.76 58.53 C 29.76 55.86 29.76 53.20 29.76 50.53 C 32.29 50.11 36.20 51.66 37.62 48.74 C 37.97 45.18 37.65 41.59 37.81 38.02 C 35.55 36.08 32.46 36.86 29.76 36.74 C 29.75 34.07 29.76 31.40 29.76 28.74 Z" />
<path fill="#fefefe" opacity="1.00" d=" M 29.76 39.50 C 31.42 39.51 33.08 39.50 34.75 39.50 C 34.75 42.17 34.75 44.83 34.75 47.50 C 33.08 47.49 31.42 47.49 29.76 47.50 C 29.76 44.83 29.76 42.17 29.76 39.50 Z" />
<path fill="#fefefe" opacity="1.00" d=" M 53.24 42.13 C 53.70 39.44 56.84 39.47 58.97 39.48 C 66.01 39.59 73.06 39.34 80.09 39.60 C 81.90 39.46 83.08 41.08 83.10 42.74 C 83.76 48.20 84.74 53.64 84.85 59.15 C 84.51 58.83 83.84 58.19 83.50 57.87 C 82.49 53.35 82.46 48.66 81.44 44.13 C 81.19 42.07 78.65 41.98 77.05 41.99 C 70.66 42.06 64.26 41.85 57.87 42.10 C 55.78 41.94 55.07 44.18 54.60 45.78 C 52.25 54.51 49.84 63.23 47.47 71.95 C 46.88 71.97 45.71 72.00 45.13 72.02 C 47.87 62.06 50.43 52.06 53.24 42.13 Z" />
<path fill="#fefefe" opacity="1.00" d=" M 57.97 45.00 C 64.86 45.00 71.76 45.00 78.66 45.00 C 79.22 49.75 79.93 54.47 80.54 59.21 C 81.02 62.63 79.77 65.95 79.14 69.26 C 75.52 69.53 71.55 68.47 68.17 70.02 C 66.57 72.22 66.14 74.99 65.20 77.50 C 64.20 77.50 62.20 77.49 61.20 77.49 C 61.36 73.07 63.93 67.75 60.41 64.04 C 60.67 63.34 61.19 61.95 61.45 61.25 C 62.18 61.60 63.63 62.31 64.36 62.67 C 64.71 62.00 65.41 60.68 65.77 60.02 C 62.95 58.60 60.13 57.19 57.31 55.78 C 56.88 56.70 56.45 57.62 56.02 58.54 C 56.69 58.86 58.03 59.50 58.70 59.82 C 58.18 61.12 57.67 62.44 57.16 63.75 C 55.73 63.75 54.30 63.75 52.87 63.75 C 54.55 57.50 56.27 51.25 57.97 45.00 Z" />
<path fill="#fefefe" opacity="1.00" d=" M 37.59 56.02 C 38.25 56.01 39.58 56.00 40.24 55.99 C 40.24 58.66 40.24 61.33 40.25 64.00 C 34.00 64.00 27.75 64.00 21.50 64.00 C 21.50 63.37 21.50 62.12 21.51 61.50 C 25.76 61.36 30.06 61.83 34.29 61.28 C 36.88 61.00 36.83 57.88 37.59 56.02 Z" />
<path fill="#fefefe" opacity="1.00" d=" M 83.89 61.50 C 89.34 61.50 94.79 61.50 100.24 61.51 C 100.25 67.07 100.24 72.63 100.25 78.19 C 99.41 78.80 98.58 79.42 97.75 80.05 C 95.41 78.35 92.67 77.47 89.80 77.30 C 89.58 74.93 90.30 72.19 88.82 70.11 C 86.93 68.73 84.40 69.43 82.23 69.18 C 82.80 66.62 83.34 64.06 83.89 61.50 Z" />
<path fill="#fefefe" opacity="1.00" d=" M 52.04 66.71 C 54.46 66.76 56.89 66.75 59.30 67.01 C 59.17 70.05 58.69 73.06 58.46 76.09 C 57.84 74.94 57.26 73.76 56.41 72.75 C 54.71 71.63 52.54 72.13 50.63 71.91 C 51.11 70.18 51.57 68.45 52.04 66.71 Z" />
<path fill="#fefefe" opacity="1.00" d=" M 70.23 72.24 C 72.99 72.25 75.75 72.26 78.50 72.26 C 78.12 74.01 77.74 75.76 77.36 77.51 C 74.40 77.49 71.43 77.50 68.46 77.50 C 69.05 75.75 69.63 73.99 70.23 72.24 Z" />
<path fill="#fefefe" opacity="1.00" d=" M 80.78 73.30 C 82.37 71.67 84.76 72.40 86.78 72.23 C 86.78 72.55 86.78 73.20 86.77 73.52 C 84.77 73.51 82.77 73.47 80.78 73.30 Z" />
<path fill="#fefefe" opacity="1.00" d=" M 43.26 75.00 C 47.02 75.00 50.77 74.98 54.52 75.05 C 55.36 76.69 56.07 78.44 57.21 79.91 C 58.68 80.66 60.39 80.45 61.98 80.53 C 69.27 80.50 76.56 80.48 83.85 80.52 C 83.40 81.14 82.51 82.38 82.07 83.00 C 73.43 82.98 64.79 83.03 56.15 82.98 C 53.63 78.41 48.13 76.37 43.22 78.16 C 43.23 77.37 43.25 75.79 43.26 75.00 Z" />
<path fill="#fefefe" opacity="1.00" d=" M 44.41 81.24 C 48.46 79.04 54.04 82.49 53.80 87.12 C 54.08 91.92 48.12 95.53 44.03 92.87 C 39.43 90.59 39.69 83.22 44.41 81.24 M 45.43 83.33 C 42.73 84.51 42.15 88.62 44.56 90.40 C 47.08 92.66 51.93 90.53 51.41 87.01 C 51.57 84.05 47.97 82.10 45.43 83.33 Z" />
<path fill="#fefefe" opacity="1.00" d=" M 88.26 81.14 C 93.02 78.70 98.91 83.95 97.19 88.96 C 96.11 93.31 90.19 95.27 86.79 92.29 C 82.87 89.51 83.82 82.84 88.26 81.14 M 89.21 83.27 C 86.55 84.28 85.80 88.20 87.90 90.12 C 90.07 92.45 94.56 91.22 94.97 87.98 C 95.79 84.82 92.13 81.91 89.21 83.27 Z" />
<path fill="#fefefe" opacity="1.00" d=" M 46.22 86.38 C 47.15 84.94 49.33 86.64 48.28 87.93 C 47.35 89.33 45.14 87.66 46.22 86.38 Z" />
<path fill="#fefefe" opacity="1.00" d=" M 56.91 86.00 C 65.02 86.00 73.13 86.00 81.25 86.00 C 81.25 86.63 81.24 87.87 81.24 88.50 C 73.12 88.50 65.00 88.49 56.88 88.50 C 56.89 87.88 56.90 86.63 56.91 86.00 Z" />
<path fill="#fefefe" opacity="1.00" d=" M 90.06 86.30 C 91.70 85.82 92.23 86.39 91.66 88.01 C 90.02 88.49 89.49 87.91 90.06 86.30 Z" />
</g>
<g id="#0114aeff">
<path fill="#0114ae" opacity="1.00" d=" M 40.34 14.99 C 40.28 10.78 48.75 10.75 48.69 14.97 C 48.86 25.61 48.71 36.26 48.74 46.90 C 49.95 43.40 49.90 38.25 54.09 36.92 C 62.72 36.51 71.39 36.84 80.04 36.75 C 82.74 36.44 85.45 38.35 85.85 41.08 C 86.83 46.86 87.34 52.71 88.12 58.53 C 92.69 58.59 97.29 58.24 101.85 58.69 C 103.67 59.85 103.14 62.18 103.28 64.00 C 103.20 68.65 103.35 73.31 103.22 77.97 C 103.40 80.27 101.02 81.27 99.63 82.65 C 101.38 87.02 100.48 92.59 96.26 95.19 C 91.47 98.61 84.57 96.28 81.94 91.26 C 73.37 91.25 64.80 91.24 56.23 91.27 C 54.38 94.04 51.65 96.58 48.14 96.73 C 43.00 97.46 37.96 93.23 37.63 88.08 C 37.20 85.17 38.66 82.52 40.19 80.18 C 40.29 75.71 40.23 71.23 40.24 66.76 C 33.60 66.64 26.94 66.98 20.31 66.62 C 17.17 64.89 17.87 59.25 21.20 57.96 C 21.30 47.64 21.22 37.32 21.23 26.99 C 20.24 21.92 28.74 21.41 29.92 25.66 C 31.83 25.79 33.81 25.59 35.64 26.22 C 37.30 28.10 36.69 32.11 40.23 31.45 C 40.35 25.97 40.07 20.47 40.34 14.99 M 43.25 15.00 C 43.20 32.44 43.36 49.88 43.17 67.31 C 44.26 63.27 45.93 59.28 45.77 55.02 C 45.73 41.68 45.75 28.34 45.75 15.00 C 45.12 15.00 43.88 15.00 43.25 15.00 M 24.25 26.00 C 24.25 36.83 24.26 47.65 24.25 58.48 C 24.87 58.49 26.11 58.51 26.73 58.52 C 26.76 47.68 26.74 36.84 26.75 26.00 C 26.12 26.00 24.88 26.00 24.25 26.00 M 29.76 28.74 C 29.76 31.40 29.75 34.07 29.76 36.74 C 32.46 36.86 35.55 36.08 37.81 38.02 C 37.65 41.59 37.97 45.18 37.62 48.74 C 36.20 51.66 32.29 50.11 29.76 50.53 C 29.76 53.20 29.76 55.86 29.76 58.53 C 31.05 58.48 32.35 58.46 33.65 58.46 C 34.22 56.84 34.45 55.00 35.58 53.65 C 36.94 52.76 38.72 53.13 40.25 52.85 C 40.24 46.72 40.24 40.58 40.25 34.45 C 39.46 34.34 37.87 34.12 37.08 34.02 C 34.45 33.87 34.52 30.61 33.70 28.78 C 32.38 28.78 31.07 28.77 29.76 28.74 M 29.76 39.50 C 29.76 42.17 29.76 44.83 29.76 47.50 C 31.42 47.49 33.08 47.49 34.75 47.50 C 34.75 44.83 34.75 42.17 34.75 39.50 C 33.08 39.50 31.42 39.51 29.76 39.50 M 53.24 42.13 C 50.43 52.06 47.87 62.06 45.13 72.02 C 45.71 72.00 46.88 71.97 47.47 71.95 C 49.84 63.23 52.25 54.51 54.60 45.78 C 55.07 44.18 55.78 41.94 57.87 42.10 C 64.26 41.85 70.66 42.06 77.05 41.99 C 78.65 41.98 81.19 42.07 81.44 44.13 C 82.46 48.66 82.49 53.35 83.50 57.87 C 83.84 58.19 84.51 58.83 84.85 59.15 C 84.74 53.64 83.76 48.20 83.10 42.74 C 83.08 41.08 81.90 39.46 80.09 39.60 C 73.06 39.34 66.01 39.59 58.97 39.48 C 56.84 39.47 53.70 39.44 53.24 42.13 M 57.97 45.00 C 56.27 51.25 54.55 57.50 52.87 63.75 C 54.30 63.75 55.73 63.75 57.16 63.75 C 57.67 62.44 58.18 61.12 58.70 59.82 C 58.03 59.50 56.69 58.86 56.02 58.54 C 56.45 57.62 56.88 56.70 57.31 55.78 C 60.13 57.19 62.95 58.60 65.77 60.02 C 65.41 60.68 64.71 62.00 64.36 62.67 C 63.63 62.31 62.18 61.60 61.45 61.25 C 61.19 61.95 60.67 63.34 60.41 64.04 C 63.93 67.75 61.36 73.07 61.20 77.49 C 62.20 77.49 64.20 77.50 65.20 77.50 C 66.14 74.99 66.57 72.22 68.17 70.02 C 71.55 68.47 75.52 69.53 79.14 69.26 C 79.77 65.95 81.02 62.63 80.54 59.21 C 79.93 54.47 79.22 49.75 78.66 45.00 C 71.76 45.00 64.86 45.00 57.97 45.00 M 37.59 56.02 C 36.83 57.88 36.88 61.00 34.29 61.28 C 30.06 61.83 25.76 61.36 21.51 61.50 C 21.50 62.12 21.50 63.37 21.50 64.00 C 27.75 64.00 34.00 64.00 40.25 64.00 C 40.24 61.33 40.24 58.66 40.24 55.99 C 39.58 56.00 38.25 56.01 37.59 56.02 M 83.89 61.50 C 83.34 64.06 82.80 66.62 82.23 69.18 C 84.40 69.43 86.93 68.73 88.82 70.11 C 90.30 72.19 89.58 74.93 89.80 77.30 C 92.67 77.47 95.41 78.35 97.75 80.05 C 98.58 79.42 99.41 78.80 100.25 78.19 C 100.24 72.63 100.25 67.07 100.24 61.51 C 94.79 61.50 89.34 61.50 83.89 61.50 M 52.04 66.71 C 51.57 68.45 51.11 70.18 50.63 71.91 C 52.54 72.13 54.71 71.63 56.41 72.75 C 57.26 73.76 57.84 74.94 58.46 76.09 C 58.69 73.06 59.17 70.05 59.30 67.01 C 56.89 66.75 54.46 66.76 52.04 66.71 M 70.23 72.24 C 69.63 73.99 69.05 75.75 68.46 77.50 C 71.43 77.50 74.40 77.49 77.36 77.51 C 77.74 75.76 78.12 74.01 78.50 72.26 C 75.75 72.26 72.99 72.25 70.23 72.24 M 80.78 73.30 C 82.77 73.47 84.77 73.51 86.77 73.52 C 86.78 73.20 86.78 72.55 86.78 72.23 C 84.76 72.40 82.37 71.67 80.78 73.30 M 43.26 75.00 C 43.25 75.79 43.23 77.37 43.22 78.16 C 48.13 76.37 53.63 78.41 56.15 82.98 C 64.79 83.03 73.43 82.98 82.07 83.00 C 82.51 82.38 83.40 81.14 83.85 80.52 C 76.56 80.48 69.27 80.50 61.98 80.53 C 60.39 80.45 58.68 80.66 57.21 79.91 C 56.07 78.44 55.36 76.69 54.52 75.05 C 50.77 74.98 47.02 75.00 43.26 75.00 M 44.41 81.24 C 39.69 83.22 39.43 90.59 44.03 92.87 C 48.12 95.53 54.08 91.92 53.80 87.12 C 54.04 82.49 48.46 79.04 44.41 81.24 M 88.26 81.14 C 83.82 82.84 82.87 89.51 86.79 92.29 C 90.19 95.27 96.11 93.31 97.19 88.96 C 98.91 83.95 93.02 78.70 88.26 81.14 M 56.91 86.00 C 56.90 86.63 56.89 87.88 56.88 88.50 C 65.00 88.49 73.12 88.50 81.24 88.50 C 81.24 87.87 81.25 86.63 81.25 86.00 C 73.13 86.00 65.02 86.00 56.91 86.00 Z" />
<path fill="#0114ae" opacity="1.00" d=" M 45.43 83.33 C 47.97 82.10 51.57 84.05 51.41 87.01 C 51.93 90.53 47.08 92.66 44.56 90.40 C 42.15 88.62 42.73 84.51 45.43 83.33 M 46.22 86.38 C 45.14 87.66 47.35 89.33 48.28 87.93 C 49.33 86.64 47.15 84.94 46.22 86.38 Z" />
<path fill="#0114ae" opacity="1.00" d=" M 89.21 83.27 C 92.13 81.91 95.79 84.82 94.97 87.98 C 94.56 91.22 90.07 92.45 87.90 90.12 C 85.80 88.20 86.55 84.28 89.21 83.27 M 90.06 86.30 C 89.49 87.91 90.02 88.49 91.66 88.01 C 92.23 86.39 91.70 85.82 90.06 86.30 Z" />
</g>
</svg>
