<?xml version="1.0" encoding="UTF-8" ?>
<!DOCTYPE svg PUBLIC "-//W3C//DTD SVG 1.1//EN" "http://www.w3.org/Graphics/SVG/1.1/DTD/svg11.dtd">
<svg width="119pt" height="90pt" viewBox="0 0 119 90" version="1.1" xmlns="http://www.w3.org/2000/svg">
<g id="#fefefeff">
<path fill="#fefefe" opacity="1.00" d=" M 55.16 13.24 C 57.13 13.24 59.09 13.24 61.05 13.23 C 62.27 16.13 63.44 19.06 64.57 22.00 C 63.52 23.57 62.48 25.15 61.43 26.73 C 59.20 26.60 56.87 27.07 54.72 26.43 C 53.54 25.06 52.65 23.49 51.68 21.97 C 52.82 19.05 53.98 16.14 55.16 13.24 Z" />
<path fill="#fefefe" opacity="1.00" d=" M 40.20 63.78 C 46.26 59.60 52.13 55.15 58.11 50.86 C 64.11 55.13 69.99 59.57 76.03 63.79 C 64.08 63.71 52.14 63.74 40.20 63.78 Z" />
<path fill="#fefefe" opacity="1.00" d=" M 18.76 68.76 C 22.58 68.75 26.41 68.75 30.25 68.76 C 30.25 70.25 30.25 71.75 30.24 73.24 C 26.41 73.25 22.59 73.25 18.76 73.24 C 18.75 71.75 18.75 70.25 18.76 68.76 Z" />
<path fill="#fefefe" opacity="1.00" d=" M 35.00 68.75 C 50.42 68.75 65.83 68.75 81.25 68.75 C 81.25 70.25 81.25 71.75 81.25 73.25 C 65.83 73.25 50.42 73.25 35.00 73.25 C 35.00 71.75 35.00 70.25 35.00 68.75 Z" />
<path fill="#fefefe" opacity="1.00" d=" M 86.00 68.75 C 89.83 68.75 93.66 68.75 97.50 68.75 C 97.50 70.25 97.50 71.75 97.50 73.25 C 93.66 73.25 89.83 73.25 86.00 73.25 C 86.00 71.75 86.00 70.25 86.00 68.75 Z" />
</g>
<g id="#0013aeff">
<path fill="#0013ae" opacity="1.00" d=" M 51.48 9.43 C 52.00 8.05 53.77 8.38 54.91 8.23 C 58.07 8.16 61.24 8.22 64.40 8.48 C 66.30 12.93 68.36 17.36 69.76 21.99 C 69.27 25.12 66.71 27.56 65.06 30.18 C 64.13 31.94 61.92 31.64 60.28 31.96 C 60.32 34.94 64.02 35.33 65.15 37.74 C 67.35 41.23 66.12 45.79 63.39 48.60 C 69.28 52.71 75.05 56.98 80.83 61.23 C 86.73 66.71 95.54 61.52 102.27 64.81 C 102.10 68.83 102.55 72.88 102.04 76.88 C 101.15 78.24 99.47 77.96 98.08 78.02 C 71.38 77.98 44.67 77.99 17.97 78.02 C 16.61 77.96 14.89 78.23 14.17 76.74 C 13.82 73.18 13.97 69.58 14.05 66.01 C 13.82 64.42 15.70 63.76 16.97 63.81 C 21.86 63.50 26.79 64.06 31.67 63.60 C 39.02 59.08 45.63 53.40 52.84 48.64 C 51.36 46.73 49.88 44.62 49.99 42.08 C 49.39 39.60 53.56 38.34 54.28 40.82 C 55.11 42.49 55.49 45.30 57.94 45.13 C 60.45 45.53 62.41 42.32 60.90 40.27 C 59.78 38.82 57.72 38.71 56.23 37.77 C 55.28 36.01 55.91 33.84 55.73 31.91 C 54.06 31.67 51.97 31.85 51.09 30.07 C 49.47 27.46 46.96 25.06 46.48 21.96 C 47.90 17.70 49.57 13.49 51.48 9.43 M 55.16 13.24 C 53.98 16.14 52.82 19.05 51.68 21.97 C 52.65 23.49 53.54 25.06 54.72 26.43 C 56.87 27.07 59.20 26.60 61.43 26.73 C 62.48 25.15 63.52 23.57 64.57 22.00 C 63.44 19.06 62.27 16.13 61.05 13.23 C 59.09 13.24 57.13 13.24 55.16 13.24 M 40.20 63.78 C 52.14 63.74 64.08 63.71 76.03 63.79 C 69.99 59.57 64.11 55.13 58.11 50.86 C 52.13 55.15 46.26 59.60 40.20 63.78 M 18.76 68.76 C 18.75 70.25 18.75 71.75 18.76 73.24 C 22.59 73.25 26.41 73.25 30.24 73.24 C 30.25 71.75 30.25 70.25 30.25 68.76 C 26.41 68.75 22.58 68.75 18.76 68.76 M 35.00 68.75 C 35.00 70.25 35.00 71.75 35.00 73.25 C 50.42 73.25 65.83 73.25 81.25 73.25 C 81.25 71.75 81.25 70.25 81.25 68.75 C 65.83 68.75 50.42 68.75 35.00 68.75 M 86.00 68.75 C 86.00 70.25 86.00 71.75 86.00 73.25 C 89.83 73.25 93.66 73.25 97.50 73.25 C 97.50 71.75 97.50 70.25 97.50 68.75 C 93.66 68.75 89.83 68.75 86.00 68.75 Z" />
</g>
</svg>
