<?xml version="1.0" encoding="UTF-8" ?>
<!DOCTYPE svg PUBLIC "-//W3C//DTD SVG 1.1//EN" "http://www.w3.org/Graphics/SVG/1.1/DTD/svg11.dtd">
<svg width="143pt" height="119pt" viewBox="0 0 143 119" version="1.1" xmlns="http://www.w3.org/2000/svg">
<g id="#fefefeff">
<path fill="#fefefe" opacity="1.00" d=" M 110.50 30.25 C 111.32 30.25 112.94 30.25 113.75 30.25 C 113.75 35.25 113.75 40.25 113.75 45.25 C 112.94 45.25 111.31 45.25 110.50 45.25 C 110.50 40.25 110.50 35.25 110.50 30.25 Z" />
<path fill="#fefefe" opacity="1.00" d=" M 66.00 33.50 C 76.17 33.50 86.33 33.50 96.50 33.50 C 96.54 47.02 96.41 60.54 96.56 74.06 C 94.33 72.52 91.82 71.47 89.17 70.89 C 81.17 68.08 74.26 62.60 66.00 60.47 C 66.00 51.48 66.00 42.49 66.00 33.50 M 71.21 37.13 C 69.71 37.77 69.13 39.46 69.25 40.98 C 69.28 46.61 69.11 52.26 69.34 57.90 C 69.40 59.76 71.19 61.04 72.97 60.94 C 78.65 61.03 84.35 61.12 90.03 60.89 C 92.17 61.02 93.51 58.93 93.42 56.98 C 93.55 51.36 93.62 45.72 93.38 40.11 C 93.40 37.22 90.27 36.50 87.97 36.74 C 82.39 36.97 76.71 36.24 71.21 37.13 Z" />
<path fill="#fefefe" opacity="1.00" d=" M 73.00 40.50 C 78.58 40.50 84.16 40.50 89.74 40.50 C 89.75 46.08 89.75 51.66 89.75 57.25 C 84.17 57.25 78.58 57.25 73.00 57.25 C 73.00 51.67 73.00 46.08 73.00 40.50 Z" />
<path fill="#fefefe" opacity="1.00" d=" M 52.25 47.25 C 53.33 47.25 54.42 47.25 55.50 47.26 C 55.50 49.42 55.50 51.58 55.50 53.74 C 54.42 53.75 53.34 53.75 52.25 53.75 C 52.25 51.58 52.25 49.42 52.25 47.25 Z" />
<path fill="#fefefe" opacity="1.00" d=" M 109.96 49.00 C 111.22 49.00 112.49 49.00 113.75 49.00 C 113.75 50.58 113.75 52.16 113.75 53.74 C 111.85 53.75 109.94 53.75 108.04 53.77 C 108.69 52.18 109.32 50.59 109.96 49.00 Z" />
<path fill="#fefefe" opacity="1.00" d=" M 100.25 60.75 C 100.25 59.66 100.25 58.58 100.26 57.50 C 105.84 57.50 111.42 57.50 117.00 57.50 C 117.00 58.31 117.00 59.94 117.00 60.75 C 111.41 60.74 105.83 60.75 100.25 60.75 Z" />
<path fill="#fefefe" opacity="1.00" d=" M 22.37 66.19 C 22.66 64.89 24.03 64.47 24.97 63.76 C 25.84 66.61 26.64 69.49 27.45 72.36 C 24.27 74.46 22.18 77.69 21.30 81.37 C 20.49 81.23 18.87 80.93 18.06 80.78 C 19.38 75.88 20.78 71.00 22.37 66.19 Z" />
<path fill="#fefefe" opacity="1.00" d=" M 29.00 64.24 C 41.58 64.33 54.18 63.96 66.74 64.44 C 72.19 66.63 77.24 69.70 82.60 72.12 C 81.09 73.33 79.61 74.59 78.23 75.94 C 73.89 74.19 69.96 70.74 65.04 70.98 C 53.69 71.08 42.33 70.84 30.99 71.12 C 30.31 68.83 29.65 66.54 29.00 64.24 M 35.00 65.00 C 35.00 66.33 35.00 67.67 35.00 69.00 C 36.33 69.00 37.67 69.00 39.00 69.00 C 39.00 67.66 39.00 66.33 39.00 65.00 C 37.67 65.00 36.33 65.00 35.00 65.00 M 41.00 64.96 C 41.00 66.31 41.00 67.65 41.00 69.00 C 44.67 69.00 48.33 69.00 52.00 69.00 C 52.00 67.65 52.00 66.31 52.00 64.96 C 48.33 64.90 44.67 64.90 41.00 64.96 Z" />
<path fill="#fefefe" opacity="1.00" d=" M 100.25 64.25 C 101.06 64.25 102.69 64.25 103.50 64.25 C 103.50 66.85 103.50 69.45 103.50 72.05 C 102.40 72.75 101.31 73.46 100.23 74.17 C 100.26 70.86 100.25 67.56 100.25 64.25 Z" />
<path fill="#fefefe" opacity="1.00" d=" M 114.00 64.25 C 114.75 64.25 116.25 64.25 117.00 64.25 C 117.00 67.56 117.00 70.87 117.01 74.18 C 116.01 73.49 115.00 72.81 114.00 72.14 C 114.00 69.51 114.00 66.88 114.00 64.25 Z" />
<path fill="#fefefe" opacity="1.00" d=" M 107.00 64.25 C 107.81 64.25 109.44 64.26 110.25 64.26 C 110.25 66.50 110.25 68.75 110.25 71.00 C 109.44 71.00 107.81 71.00 107.00 71.00 C 107.00 68.75 107.00 66.50 107.00 64.25 Z" />
<path fill="#fefefe" opacity="1.00" d=" M 29.50 75.72 C 35.04 72.42 42.81 77.58 41.65 83.99 C 41.34 89.68 34.50 93.14 29.60 90.47 C 23.80 87.82 23.65 78.40 29.50 75.72 M 31.24 78.30 C 27.59 79.75 27.16 85.43 30.55 87.40 C 33.74 89.74 38.95 87.11 38.64 83.05 C 38.86 79.33 34.51 76.62 31.24 78.30 Z" />
<path fill="#fefefe" opacity="1.00" d=" M 85.28 75.23 C 90.80 73.00 97.38 78.00 96.37 83.95 C 96.13 90.46 87.28 93.75 82.67 89.33 C 77.93 85.61 79.47 76.98 85.28 75.23 M 86.18 78.22 C 82.27 79.47 81.84 85.59 85.37 87.52 C 88.34 89.48 92.87 87.53 93.28 83.93 C 94.17 80.05 89.78 76.53 86.18 78.22 Z" />
<path fill="#fefefe" opacity="1.00" d=" M 105.34 75.39 C 110.97 72.77 118.00 77.88 116.88 84.08 C 116.52 90.08 108.89 93.39 104.07 90.02 C 98.64 86.77 99.41 77.63 105.34 75.39 M 106.36 78.37 C 102.79 79.81 102.45 85.41 105.70 87.38 C 108.59 89.50 113.29 87.67 113.75 84.04 C 114.86 79.97 109.98 76.32 106.36 78.37 Z" />
<path fill="#fefefe" opacity="1.00" d=" M 33.30 81.56 C 34.13 81.67 35.94 82.89 34.63 83.69 C 33.35 86.51 30.21 81.82 33.30 81.56 Z" />
<path fill="#fefefe" opacity="1.00" d=" M 59.25 81.50 C 61.42 81.50 63.58 81.50 65.75 81.50 C 65.75 83.66 65.75 85.83 65.75 88.00 C 63.58 88.00 61.42 88.00 59.25 88.00 C 59.25 85.83 59.25 83.66 59.25 81.50 Z" />
<path fill="#fefefe" opacity="1.00" d=" M 86.53 83.13 C 87.19 82.40 87.86 81.69 88.54 80.99 C 89.00 82.04 89.98 83.14 89.22 84.31 C 88.02 84.74 86.99 84.41 86.53 83.13 Z" />
<path fill="#fefefe" opacity="1.00" d=" M 107.79 81.05 C 108.30 81.39 109.33 82.06 109.84 82.40 C 111.14 84.02 108.34 84.44 107.41 84.82 C 107.49 83.56 107.63 82.30 107.79 81.05 Z" />
<path fill="#fefefe" opacity="1.00" d=" M 45.70 81.49 C 48.96 81.50 52.23 81.50 55.50 81.50 C 55.50 83.67 55.50 85.83 55.50 88.00 C 51.87 88.00 48.25 88.00 44.63 88.01 C 45.12 85.86 45.46 83.68 45.70 81.49 Z" />
</g>
<g id="#0013aeff">
<path fill="#0013ae" opacity="1.00" d=" M 93.25 16.25 C 94.42 16.25 95.58 16.25 96.75 16.25 C 96.76 20.67 96.74 25.09 96.76 29.50 C 98.13 30.36 100.09 31.07 100.13 33.01 C 100.45 39.92 100.15 46.84 100.25 53.75 C 101.50 53.75 102.75 53.75 104.00 53.75 C 104.90 51.43 106.04 49.19 106.61 46.76 C 107.14 40.89 106.28 34.96 107.01 29.11 C 107.65 25.99 111.60 26.38 114.02 26.55 C 115.89 26.49 117.40 28.20 117.22 30.05 C 117.32 37.85 117.22 45.65 117.24 53.46 C 118.73 54.27 120.74 55.07 120.66 57.13 C 120.88 65.79 120.73 74.47 120.73 83.13 C 120.87 89.44 115.36 95.12 109.04 95.11 C 104.76 95.36 100.92 92.98 98.39 89.67 C 94.78 94.95 87.09 96.85 81.65 93.29 C 77.04 90.48 75.14 84.59 76.54 79.49 C 72.48 77.66 68.69 74.36 63.98 74.73 C 56.76 74.76 49.54 74.78 42.33 74.73 C 43.02 75.74 43.71 76.75 44.40 77.77 C 51.90 77.89 59.43 77.44 66.90 77.97 C 70.05 78.69 69.46 82.56 69.56 84.99 C 69.55 87.36 69.81 91.08 66.71 91.57 C 58.51 92.05 50.26 91.56 42.05 91.79 C 39.22 93.93 35.77 95.59 32.13 95.05 C 26.81 94.71 22.57 90.25 21.41 85.22 C 18.67 84.92 14.97 84.34 14.58 80.93 C 14.62 76.74 16.69 72.85 17.61 68.79 C 18.56 65.79 19.20 61.37 23.04 60.86 C 36.10 60.58 49.18 60.84 62.25 60.74 C 62.24 52.81 62.25 44.87 62.25 36.93 C 60.49 36.99 58.73 36.93 56.99 37.17 C 54.89 38.32 56.10 41.26 55.71 43.19 C 57.20 44.16 59.39 44.86 59.15 47.06 C 59.03 50.28 60.34 54.51 57.67 56.95 C 55.01 57.71 50.95 58.43 49.12 55.77 C 48.42 52.63 48.67 49.33 48.88 46.14 C 49.10 44.60 50.90 44.20 51.92 43.32 C 52.18 40.46 51.48 36.98 53.76 34.77 C 55.97 32.74 59.23 33.41 61.96 33.15 C 62.96 31.76 63.89 29.71 65.98 30.03 C 75.07 29.93 84.16 30.04 93.25 30.00 C 93.25 25.41 93.25 20.83 93.25 16.25 M 110.50 30.25 C 110.50 35.25 110.50 40.25 110.50 45.25 C 111.31 45.25 112.94 45.25 113.75 45.25 C 113.75 40.25 113.75 35.25 113.75 30.25 C 112.94 30.25 111.32 30.25 110.50 30.25 M 66.00 33.50 C 66.00 42.49 66.00 51.48 66.00 60.47 C 74.26 62.60 81.17 68.08 89.17 70.89 C 91.82 71.47 94.33 72.52 96.56 74.06 C 96.41 60.54 96.54 47.02 96.50 33.50 C 86.33 33.50 76.17 33.50 66.00 33.50 M 52.25 47.25 C 52.25 49.42 52.25 51.58 52.25 53.75 C 53.34 53.75 54.42 53.75 55.50 53.74 C 55.50 51.58 55.50 49.42 55.50 47.26 C 54.42 47.25 53.33 47.25 52.25 47.25 M 109.96 49.00 C 109.32 50.59 108.69 52.18 108.04 53.77 C 109.94 53.75 111.85 53.75 113.75 53.74 C 113.75 52.16 113.75 50.58 113.75 49.00 C 112.49 49.00 111.22 49.00 109.96 49.00 M 100.25 60.75 C 105.83 60.75 111.41 60.74 117.00 60.75 C 117.00 59.94 117.00 58.31 117.00 57.50 C 111.42 57.50 105.84 57.50 100.26 57.50 C 100.25 58.58 100.25 59.66 100.25 60.75 M 22.37 66.19 C 20.78 71.00 19.38 75.88 18.06 80.78 C 18.87 80.93 20.49 81.23 21.30 81.37 C 22.18 77.69 24.27 74.46 27.45 72.36 C 26.64 69.49 25.84 66.61 24.97 63.76 C 24.03 64.47 22.66 64.89 22.37 66.19 M 29.00 64.24 C 29.65 66.54 30.31 68.83 30.99 71.12 C 42.33 70.84 53.69 71.08 65.04 70.98 C 69.96 70.74 73.89 74.19 78.23 75.94 C 79.61 74.59 81.09 73.33 82.60 72.12 C 77.24 69.70 72.19 66.63 66.74 64.44 C 54.18 63.96 41.58 64.33 29.00 64.24 M 100.25 64.25 C 100.25 67.56 100.26 70.86 100.23 74.17 C 101.31 73.46 102.40 72.75 103.50 72.05 C 103.50 69.45 103.50 66.85 103.50 64.25 C 102.69 64.25 101.06 64.25 100.25 64.25 M 114.00 64.25 C 114.00 66.88 114.00 69.51 114.00 72.14 C 115.00 72.81 116.01 73.49 117.01 74.18 C 117.00 70.87 117.00 67.56 117.00 64.25 C 116.25 64.25 114.75 64.25 114.00 64.25 M 107.00 64.25 C 107.00 66.50 107.00 68.75 107.00 71.00 C 107.81 71.00 109.44 71.00 110.25 71.00 C 110.25 68.75 110.25 66.50 110.25 64.26 C 109.44 64.26 107.81 64.25 107.00 64.25 M 29.50 75.72 C 23.65 78.40 23.80 87.82 29.60 90.47 C 34.50 93.14 41.34 89.68 41.65 83.99 C 42.81 77.58 35.04 72.42 29.50 75.72 M 85.28 75.23 C 79.47 76.98 77.93 85.61 82.67 89.33 C 87.28 93.75 96.13 90.46 96.37 83.95 C 97.38 78.00 90.80 73.00 85.28 75.23 M 105.34 75.39 C 99.41 77.63 98.64 86.77 104.07 90.02 C 108.89 93.39 116.52 90.08 116.88 84.08 C 118.00 77.88 110.97 72.77 105.34 75.39 M 59.25 81.50 C 59.25 83.66 59.25 85.83 59.25 88.00 C 61.42 88.00 63.58 88.00 65.75 88.00 C 65.75 85.83 65.75 83.66 65.75 81.50 C 63.58 81.50 61.42 81.50 59.25 81.50 M 45.70 81.49 C 45.46 83.68 45.12 85.86 44.63 88.01 C 48.25 88.00 51.87 88.00 55.50 88.00 C 55.50 85.83 55.50 83.67 55.50 81.50 C 52.23 81.50 48.96 81.50 45.70 81.49 Z" />
<path fill="#0013ae" opacity="1.00" d=" M 71.21 37.13 C 76.71 36.24 82.39 36.97 87.97 36.74 C 90.27 36.50 93.40 37.22 93.38 40.11 C 93.62 45.72 93.55 51.36 93.42 56.98 C 93.51 58.93 92.17 61.02 90.03 60.89 C 84.35 61.12 78.65 61.03 72.97 60.94 C 71.19 61.04 69.40 59.76 69.34 57.90 C 69.11 52.26 69.28 46.61 69.25 40.98 C 69.13 39.46 69.71 37.77 71.21 37.13 M 73.00 40.50 C 73.00 46.08 73.00 51.67 73.00 57.25 C 78.58 57.25 84.17 57.25 89.75 57.25 C 89.75 51.66 89.75 46.08 89.74 40.50 C 84.16 40.50 78.58 40.50 73.00 40.50 Z" />
<path fill="#0013ae" opacity="1.00" d=" M 35.00 65.00 C 36.33 65.00 37.67 65.00 39.00 65.00 C 39.00 66.33 39.00 67.66 39.00 69.00 C 37.67 69.00 36.33 69.00 35.00 69.00 C 35.00 67.67 35.00 66.33 35.00 65.00 Z" />
<path fill="#0013ae" opacity="1.00" d=" M 41.00 64.96 C 44.67 64.90 48.33 64.90 52.00 64.96 C 52.00 66.31 52.00 67.65 52.00 69.00 C 48.33 69.00 44.67 69.00 41.00 69.00 C 41.00 67.65 41.00 66.31 41.00 64.96 Z" />
<path fill="#0013ae" opacity="1.00" d=" M 31.24 78.30 C 34.51 76.62 38.86 79.33 38.64 83.05 C 38.95 87.11 33.74 89.74 30.55 87.40 C 27.16 85.43 27.59 79.75 31.24 78.30 M 33.30 81.56 C 30.21 81.82 33.35 86.51 34.63 83.69 C 35.94 82.89 34.13 81.67 33.30 81.56 Z" />
<path fill="#0013ae" opacity="1.00" d=" M 86.18 78.22 C 89.78 76.53 94.17 80.05 93.28 83.93 C 92.87 87.53 88.34 89.48 85.37 87.52 C 81.84 85.59 82.27 79.47 86.18 78.22 M 86.53 83.13 C 86.99 84.41 88.02 84.74 89.22 84.31 C 89.98 83.14 89.00 82.04 88.54 80.99 C 87.86 81.69 87.19 82.40 86.53 83.13 Z" />
<path fill="#0013ae" opacity="1.00" d=" M 106.36 78.37 C 109.98 76.32 114.86 79.97 113.75 84.04 C 113.29 87.67 108.59 89.50 105.70 87.38 C 102.45 85.41 102.79 79.81 106.36 78.37 M 107.79 81.05 C 107.63 82.30 107.49 83.56 107.41 84.82 C 108.34 84.44 111.14 84.02 109.84 82.40 C 109.33 82.06 108.30 81.39 107.79 81.05 Z" />
</g>
</svg>
