<?xml version="1.0" encoding="UTF-8" ?>
<!DOCTYPE svg PUBLIC "-//W3C//DTD SVG 1.1//EN" "http://www.w3.org/Graphics/SVG/1.1/DTD/svg11.dtd">
<svg width="157pt" height="94pt" viewBox="0 0 157 94" version="1.1" xmlns="http://www.w3.org/2000/svg">
<g id="#fefefeff">
<path fill="#fefefe" opacity="1.00" d=" M 48.24 16.51 C 57.66 16.49 67.07 16.51 76.49 16.50 C 76.49 17.31 76.51 18.93 76.51 19.74 C 67.09 19.76 57.68 19.74 48.26 19.75 C 48.25 18.94 48.24 17.32 48.24 16.51 Z" />
<path fill="#fefefe" opacity="1.00" d=" M 108.26 18.18 C 111.00 16.16 114.53 16.48 117.73 16.48 C 116.09 19.03 114.27 21.69 114.06 24.82 C 113.86 29.13 114.10 33.44 113.94 37.75 C 110.55 37.16 107.04 35.78 105.21 32.68 C 101.94 28.09 103.52 21.12 108.26 18.18 Z" />
<path fill="#fefefe" opacity="1.00" d=" M 51.75 23.51 C 58.93 23.50 66.11 23.50 73.29 23.50 C 74.62 28.17 75.95 32.83 77.28 37.50 C 75.56 37.50 73.85 37.51 72.13 37.50 C 70.96 36.34 69.80 35.18 68.65 34.01 C 69.39 33.24 70.13 32.48 70.87 31.71 C 69.95 30.82 69.03 29.92 68.10 29.04 C 65.66 31.47 63.22 33.90 60.79 36.35 C 61.67 37.29 62.57 38.21 63.48 39.13 C 64.24 38.38 64.99 37.63 65.76 36.87 C 66.94 38.06 68.10 39.26 69.28 40.45 C 69.26 41.88 69.24 43.31 69.24 44.75 C 63.41 44.75 57.58 44.74 51.76 44.75 C 51.75 37.67 51.75 30.59 51.75 23.51 Z" />
<path fill="#fefefe" opacity="1.00" d=" M 84.29 44.80 C 86.75 37.04 92.28 30.47 99.52 26.75 C 99.65 27.59 99.91 29.27 100.05 30.11 C 94.42 33.46 89.98 38.57 87.65 44.71 C 86.53 44.74 85.41 44.77 84.29 44.80 Z" />
<path fill="#fefefe" opacity="1.00" d=" M 73.00 41.25 C 74.80 41.25 76.59 41.25 78.39 41.26 C 78.70 42.42 79.01 43.59 79.33 44.76 C 77.22 44.75 75.11 44.75 73.00 44.75 C 73.00 43.58 73.00 42.41 73.00 41.25 Z" />
<path fill="#fefefe" opacity="1.00" d=" M 33.94 50.09 C 34.16 48.10 36.60 48.63 37.97 48.48 C 43.64 48.49 49.32 48.51 55.00 48.50 C 55.00 53.17 55.01 57.84 54.99 62.52 C 53.91 62.50 52.83 62.49 51.75 62.49 C 51.75 58.91 51.75 55.33 51.75 51.75 C 46.92 51.75 42.08 51.75 37.25 51.75 C 37.25 55.33 37.25 58.92 37.25 62.50 C 36.37 62.50 34.63 62.50 33.76 62.50 C 33.85 58.37 33.49 54.21 33.94 50.09 Z" />
<path fill="#fefefe" opacity="1.00" d=" M 58.75 48.50 C 65.84 48.50 72.92 48.50 80.00 48.50 C 80.01 51.02 80.11 53.56 79.90 56.07 C 78.34 58.57 75.85 60.36 73.85 62.50 C 68.82 62.50 63.79 62.50 58.75 62.50 C 58.75 60.25 58.75 58.00 58.75 55.75 C 61.17 55.75 63.58 55.75 65.99 55.76 C 66.00 54.42 66.00 53.09 66.00 51.75 C 63.59 51.75 61.17 51.75 58.75 51.75 C 58.75 50.94 58.75 49.31 58.75 48.50 Z" />
<path fill="#fefefe" opacity="1.00" d=" M 83.76 48.44 C 85.87 48.58 88.09 48.21 90.11 48.98 C 91.24 50.93 90.57 53.34 90.80 55.49 C 88.45 55.50 86.10 55.50 83.75 55.50 C 83.75 53.15 83.75 50.79 83.76 48.44 Z" />
<path fill="#fefefe" opacity="1.00" d=" M 41.00 55.75 C 43.33 55.75 45.67 55.75 48.00 55.75 C 48.00 58.00 48.00 60.25 48.00 62.50 C 45.67 62.50 43.33 62.50 41.00 62.50 C 41.00 60.25 41.00 58.00 41.00 55.75 Z" />
<path fill="#fefefe" opacity="1.00" d=" M 82.54 59.29 C 88.53 59.36 94.54 58.96 100.50 59.46 C 101.03 60.41 101.48 61.41 101.95 62.39 C 96.69 62.77 91.37 62.06 86.14 62.87 C 81.00 63.77 77.58 68.45 76.35 73.25 C 71.70 73.24 67.05 73.25 62.40 73.24 C 61.55 70.75 60.48 68.34 59.03 66.14 C 64.59 66.34 70.15 66.25 75.71 66.21 C 77.97 63.89 80.27 61.60 82.54 59.29 Z" />
<path fill="#fefefe" opacity="1.00" d=" M 30.83 66.79 C 33.96 65.76 37.35 66.43 40.59 66.17 C 39.07 68.35 38.02 70.79 37.18 73.31 C 34.99 73.11 32.57 73.69 30.59 72.51 C 30.14 70.64 29.92 68.55 30.83 66.79 Z" />
<path fill="#fefefe" opacity="1.00" d=" M 45.47 67.51 C 51.26 64.09 59.46 69.14 58.40 75.95 C 58.22 82.48 49.89 85.94 44.79 82.30 C 39.71 78.95 40.09 70.37 45.47 67.51 M 47.33 70.26 C 43.78 71.80 43.32 77.34 46.51 79.48 C 49.49 81.91 54.74 79.98 55.15 76.07 C 56.20 71.81 51.09 68.20 47.33 70.26 Z" />
<path fill="#fefefe" opacity="1.00" d=" M 85.29 67.24 C 91.07 64.38 98.60 69.38 97.66 75.90 C 97.47 82.54 88.91 86.04 83.83 82.14 C 78.67 78.58 79.49 69.70 85.29 67.24 M 86.45 70.27 C 82.82 72.05 82.63 77.93 86.27 79.81 C 89.68 81.98 94.68 79.22 94.52 75.14 C 94.71 71.08 89.92 68.43 86.45 70.27 Z" />
<path fill="#fefefe" opacity="1.00" d=" M 48.26 74.31 C 49.25 73.90 50.30 73.61 51.38 73.54 C 51.04 74.60 51.56 76.43 49.98 76.57 C 48.72 77.48 48.23 75.17 48.26 74.31 Z" />
<path fill="#fefefe" opacity="1.00" d=" M 87.57 74.41 C 87.99 74.10 88.84 73.49 89.27 73.19 C 89.77 73.85 90.25 74.52 90.71 75.21 C 90.28 76.51 88.85 76.48 87.75 76.71 C 87.70 76.14 87.61 74.98 87.57 74.41 Z" />
</g>
<g id="#0013aeff">
<path fill="#0013ae" opacity="1.00" d=" M 47.95 23.84 C 42.36 22.74 42.68 11.81 48.96 12.52 C 57.62 12.46 66.29 12.52 74.95 12.49 C 76.89 12.41 79.43 12.86 80.01 15.06 C 80.68 18.19 80.65 22.13 77.42 23.83 C 78.92 29.12 80.45 34.40 81.93 39.69 C 85.65 31.86 92.16 25.48 100.21 22.21 C 101.86 18.74 104.27 15.44 107.91 13.90 C 112.14 12.20 116.80 12.51 121.26 12.49 C 121.25 14.56 121.25 16.62 121.23 18.69 C 119.60 20.81 117.86 23.10 117.80 25.90 C 117.63 31.03 117.82 36.16 117.75 41.30 C 114.43 41.24 110.91 41.47 107.86 39.92 C 105.04 38.75 103.05 36.32 101.29 33.93 C 97.14 36.63 93.76 40.41 91.71 44.93 C 95.00 47.51 94.63 51.75 94.53 55.47 C 97.42 55.73 100.80 54.76 103.29 56.68 C 106.01 59.08 105.07 63.06 105.29 66.26 C 102.90 66.25 100.51 66.24 98.12 66.21 C 98.97 67.36 99.79 68.53 100.57 69.73 C 103.21 69.76 105.84 69.73 108.47 69.77 C 109.49 67.79 110.37 65.57 112.27 64.25 C 114.33 62.70 117.01 62.67 119.45 62.28 C 119.47 63.20 119.49 65.05 119.51 65.97 C 117.62 66.47 115.38 66.48 113.93 67.97 C 112.48 69.42 112.47 71.63 111.97 73.49 C 108.50 73.50 105.03 73.50 101.56 73.49 C 101.57 74.31 101.57 75.95 101.58 76.77 C 110.71 76.72 119.84 76.75 128.97 76.77 C 130.65 76.67 132.89 77.17 133.60 75.12 C 132.86 72.91 130.12 73.74 128.38 73.36 C 128.10 70.98 128.43 68.20 126.69 66.30 C 125.53 65.34 124.09 64.86 122.75 64.23 C 122.75 63.31 122.76 61.45 122.77 60.53 C 125.10 61.19 127.76 61.55 129.45 63.47 C 131.08 65.03 131.44 67.35 132.09 69.40 C 133.97 70.19 136.23 70.97 136.90 73.14 C 138.42 76.51 135.55 80.69 131.87 80.48 C 121.42 80.59 110.98 80.38 100.53 80.57 C 97.91 85.29 92.62 88.50 87.15 87.58 C 81.64 86.96 77.54 82.22 76.39 77.00 C 71.75 77.00 67.11 77.00 62.48 77.00 C 61.50 80.14 60.08 83.36 57.30 85.32 C 52.47 88.87 45.11 88.45 40.92 84.09 C 38.88 82.26 38.17 79.53 37.05 77.14 C 33.82 76.66 29.37 77.95 27.41 74.51 C 25.62 70.60 25.84 64.89 29.99 62.52 C 30.21 57.71 29.48 52.81 30.49 48.08 C 31.36 45.20 34.69 44.74 37.25 44.51 C 37.00 40.14 37.82 35.62 36.77 31.34 C 36.03 31.10 34.55 30.63 33.81 30.39 C 33.78 31.67 33.75 32.96 33.73 34.25 C 32.80 34.25 30.93 34.25 30.00 34.25 C 30.00 30.58 30.00 26.91 30.00 23.24 C 31.26 23.24 32.51 23.25 33.76 23.25 C 33.75 24.06 33.74 25.68 33.73 26.48 C 36.37 26.94 39.73 27.35 40.64 30.38 C 41.43 35.12 40.82 39.97 41.00 44.75 C 43.33 44.75 45.66 44.75 47.99 44.75 C 47.98 37.78 48.05 30.81 47.95 23.84 M 48.24 16.51 C 48.24 17.32 48.25 18.94 48.26 19.75 C 57.68 19.74 67.09 19.76 76.51 19.74 C 76.51 18.93 76.49 17.31 76.49 16.50 C 67.07 16.51 57.66 16.49 48.24 16.51 M 108.26 18.18 C 103.52 21.12 101.94 28.09 105.21 32.68 C 107.04 35.78 110.55 37.16 113.94 37.75 C 114.10 33.44 113.86 29.13 114.06 24.82 C 114.27 21.69 116.09 19.03 117.73 16.48 C 114.53 16.48 111.00 16.16 108.26 18.18 M 51.75 23.51 C 51.75 30.59 51.75 37.67 51.76 44.75 C 57.58 44.74 63.41 44.75 69.24 44.75 C 69.24 43.31 69.26 41.88 69.28 40.45 C 68.10 39.26 66.94 38.06 65.76 36.87 C 64.99 37.63 64.24 38.38 63.48 39.13 C 62.57 38.21 61.67 37.29 60.79 36.35 C 63.22 33.90 65.66 31.47 68.10 29.04 C 69.03 29.92 69.95 30.82 70.87 31.71 C 70.13 32.48 69.39 33.24 68.65 34.01 C 69.80 35.18 70.96 36.34 72.13 37.50 C 73.85 37.51 75.56 37.50 77.28 37.50 C 75.95 32.83 74.62 28.17 73.29 23.50 C 66.11 23.50 58.93 23.50 51.75 23.51 M 84.29 44.80 C 85.41 44.77 86.53 44.74 87.65 44.71 C 89.98 38.57 94.42 33.46 100.05 30.11 C 99.91 29.27 99.65 27.59 99.52 26.75 C 92.28 30.47 86.75 37.04 84.29 44.80 M 73.00 41.25 C 73.00 42.41 73.00 43.58 73.00 44.75 C 75.11 44.75 77.22 44.75 79.33 44.76 C 79.01 43.59 78.70 42.42 78.39 41.26 C 76.59 41.25 74.80 41.25 73.00 41.25 M 33.94 50.09 C 33.49 54.21 33.85 58.37 33.76 62.50 C 34.63 62.50 36.37 62.50 37.25 62.50 C 37.25 58.92 37.25 55.33 37.25 51.75 C 42.08 51.75 46.92 51.75 51.75 51.75 C 51.75 55.33 51.75 58.91 51.75 62.49 C 52.83 62.49 53.91 62.50 54.99 62.52 C 55.01 57.84 55.00 53.17 55.00 48.50 C 49.32 48.51 43.64 48.49 37.97 48.48 C 36.60 48.63 34.16 48.10 33.94 50.09 M 58.75 48.50 C 58.75 49.31 58.75 50.94 58.75 51.75 C 61.17 51.75 63.59 51.75 66.00 51.75 C 66.00 53.09 66.00 54.42 65.99 55.76 C 63.58 55.75 61.17 55.75 58.75 55.75 C 58.75 58.00 58.75 60.25 58.75 62.50 C 63.79 62.50 68.82 62.50 73.85 62.50 C 75.85 60.36 78.34 58.57 79.90 56.07 C 80.11 53.56 80.01 51.02 80.00 48.50 C 72.92 48.50 65.84 48.50 58.75 48.50 M 83.76 48.44 C 83.75 50.79 83.75 53.15 83.75 55.50 C 86.10 55.50 88.45 55.50 90.80 55.49 C 90.57 53.34 91.24 50.93 90.11 48.98 C 88.09 48.21 85.87 48.58 83.76 48.44 M 41.00 55.75 C 41.00 58.00 41.00 60.25 41.00 62.50 C 43.33 62.50 45.67 62.50 48.00 62.50 C 48.00 60.25 48.00 58.00 48.00 55.75 C 45.67 55.75 43.33 55.75 41.00 55.75 M 82.54 59.29 C 80.27 61.60 77.97 63.89 75.71 66.21 C 70.15 66.25 64.59 66.34 59.03 66.14 C 60.48 68.34 61.55 70.75 62.40 73.24 C 67.05 73.25 71.70 73.24 76.35 73.25 C 77.58 68.45 81.00 63.77 86.14 62.87 C 91.37 62.06 96.69 62.77 101.95 62.39 C 101.48 61.41 101.03 60.41 100.50 59.46 C 94.54 58.96 88.53 59.36 82.54 59.29 M 30.83 66.79 C 29.92 68.55 30.14 70.64 30.59 72.51 C 32.57 73.69 34.99 73.11 37.18 73.31 C 38.02 70.79 39.07 68.35 40.59 66.17 C 37.35 66.43 33.96 65.76 30.83 66.79 M 45.47 67.51 C 40.09 70.37 39.71 78.95 44.79 82.30 C 49.89 85.94 58.22 82.48 58.40 75.95 C 59.46 69.14 51.26 64.09 45.47 67.51 M 85.29 67.24 C 79.49 69.70 78.67 78.58 83.83 82.14 C 88.91 86.04 97.47 82.54 97.66 75.90 C 98.60 69.38 91.07 64.38 85.29 67.24 Z" />
<path fill="#0013ae" opacity="1.00" d=" M 121.00 25.00 C 122.25 25.00 123.50 25.00 124.76 25.01 C 124.74 32.11 124.77 39.21 124.73 46.32 C 127.65 47.74 129.84 50.22 130.38 53.48 C 135.02 53.96 137.76 58.24 137.47 62.69 C 136.55 62.72 134.71 62.77 133.79 62.79 C 133.60 61.55 133.31 60.32 132.93 59.13 C 131.50 56.88 128.56 57.65 126.33 57.43 C 126.11 55.26 126.74 52.64 124.96 50.97 C 123.69 50.45 122.32 50.28 121.00 49.98 C 120.99 41.65 121.00 33.32 121.00 25.00 Z" />
<path fill="#0013ae" opacity="1.00" d=" M 114.00 44.00 C 115.33 44.00 116.67 44.00 118.00 44.00 C 118.00 49.00 118.00 54.00 118.00 59.00 C 116.67 59.00 115.33 59.00 114.00 59.00 C 114.00 54.00 114.00 49.00 114.00 44.00 Z" />
<path fill="#0013ae" opacity="1.00" d=" M 47.33 70.26 C 51.09 68.20 56.20 71.81 55.15 76.07 C 54.74 79.98 49.49 81.91 46.51 79.48 C 43.32 77.34 43.78 71.80 47.33 70.26 M 48.26 74.31 C 48.23 75.17 48.72 77.48 49.98 76.57 C 51.56 76.43 51.04 74.60 51.38 73.54 C 50.30 73.61 49.25 73.90 48.26 74.31 Z" />
<path fill="#0013ae" opacity="1.00" d=" M 86.45 70.27 C 89.92 68.43 94.71 71.08 94.52 75.14 C 94.68 79.22 89.68 81.98 86.27 79.81 C 82.63 77.93 82.82 72.05 86.45 70.27 M 87.57 74.41 C 87.61 74.98 87.70 76.14 87.75 76.71 C 88.85 76.48 90.28 76.51 90.71 75.21 C 90.25 74.52 89.77 73.85 89.27 73.19 C 88.84 73.49 87.99 74.10 87.57 74.41 Z" />
</g>
</svg>
