<?xml version="1.0" encoding="UTF-8" ?>
<!DOCTYPE svg PUBLIC "-//W3C//DTD SVG 1.1//EN" "http://www.w3.org/Graphics/SVG/1.1/DTD/svg11.dtd">
<svg width="146pt" height="105pt" viewBox="0 0 146 105" version="1.1" xmlns="http://www.w3.org/2000/svg">
<g id="#fefefeff">
<path fill="#fefefe" opacity="1.00" d=" M 102.31 17.73 C 107.69 17.65 113.17 20.95 114.29 26.46 C 116.52 37.11 118.43 47.83 120.51 58.51 C 119.69 58.50 118.05 58.50 117.23 58.50 C 115.84 54.63 114.17 50.85 112.98 46.91 C 112.17 40.12 113.45 33.16 112.33 26.40 C 110.87 23.32 107.00 24.84 104.32 24.63 C 103.61 22.35 102.89 20.06 102.31 17.73 Z" />
<path fill="#fefefe" opacity="1.00" d=" M 33.96 31.89 C 36.21 29.91 36.27 26.63 37.83 24.20 C 39.80 25.81 39.60 28.49 40.15 30.73 C 36.19 33.82 32.25 36.92 28.22 39.92 C 27.89 39.40 27.24 38.37 26.91 37.85 C 29.16 35.76 31.68 33.96 33.96 31.89 Z" />
<path fill="#fefefe" opacity="1.00" d=" M 61.25 28.00 C 71.50 28.00 81.75 28.00 92.00 28.00 C 92.00 28.81 92.00 30.44 92.00 31.25 C 81.75 31.25 71.50 31.25 61.25 31.25 C 61.25 30.43 61.25 28.81 61.25 28.00 Z" />
<path fill="#fefefe" opacity="1.00" d=" M 105.62 29.59 C 106.30 28.38 107.70 28.04 108.87 27.49 C 109.14 34.07 108.94 40.66 109.00 47.25 C 105.67 48.91 102.34 50.58 99.01 52.25 C 99.09 47.85 98.78 43.44 99.15 39.05 C 100.94 35.68 103.39 32.68 105.62 29.59 M 102.50 38.51 C 101.76 40.34 102.51 42.30 104.74 41.77 C 107.22 40.24 104.85 36.68 102.50 38.51 Z" />
<path fill="#fefefe" opacity="1.00" d=" M 64.56 35.00 C 67.96 35.00 71.35 35.00 74.75 35.00 C 74.75 41.75 74.75 48.50 74.75 55.25 C 70.39 55.25 66.02 55.25 61.66 55.24 C 62.63 48.50 63.58 41.75 64.56 35.00 M 67.27 38.25 C 66.57 39.30 65.87 40.34 65.16 41.38 C 66.97 42.57 68.77 43.75 70.58 44.94 C 71.27 43.93 71.96 42.91 72.66 41.89 C 70.87 40.67 69.07 39.46 67.27 38.25 M 63.39 48.14 C 65.74 49.94 68.10 51.71 70.48 53.46 C 71.24 52.48 72.00 51.49 72.76 50.50 C 70.40 48.69 68.03 46.89 65.66 45.11 C 64.90 46.12 64.15 47.13 63.39 48.14 Z" />
<path fill="#fefefe" opacity="1.00" d=" M 78.50 35.00 C 81.86 35.00 85.22 34.99 88.57 35.02 C 88.80 38.35 89.00 41.67 89.27 45.00 C 85.68 45.00 82.09 45.00 78.50 45.00 C 78.50 41.67 78.50 38.33 78.50 35.00 Z" />
<path fill="#fefefe" opacity="1.00" d=" M 31.66 42.10 C 34.69 39.76 37.70 37.42 40.73 35.10 C 41.18 38.05 41.63 41.00 42.09 43.95 C 40.55 44.72 39.02 45.49 37.48 46.26 C 35.54 44.88 33.60 43.49 31.66 42.10 Z" />
<path fill="#fefefe" opacity="1.00" d=" M 45.18 39.55 C 50.02 42.58 51.93 48.50 50.09 53.85 C 48.06 49.23 45.47 44.71 45.18 39.55 Z" />
<path fill="#fefefe" opacity="1.00" d=" M 39.72 49.36 C 40.90 48.80 42.07 48.23 43.24 47.66 C 44.96 51.83 47.08 55.83 48.49 60.11 C 48.33 62.28 47.75 64.40 47.32 66.53 C 44.69 60.85 42.27 55.08 39.72 49.36 Z" />
<path fill="#fefefe" opacity="1.00" d=" M 78.50 48.50 C 82.15 48.50 85.80 48.50 89.44 48.50 C 89.62 50.77 89.78 53.05 89.94 55.33 C 86.13 55.21 82.31 55.24 78.50 55.25 C 78.50 53.00 78.50 50.75 78.50 48.50 Z" />
<path fill="#fefefe" opacity="1.00" d=" M 98.11 56.95 C 101.84 55.09 105.56 53.18 109.33 51.39 C 107.89 57.16 105.71 62.70 103.93 68.37 C 101.72 66.18 99.19 64.35 96.44 62.91 C 96.99 60.92 97.55 58.94 98.11 56.95 M 100.57 56.56 C 100.88 57.72 100.12 59.46 101.30 60.28 C 102.35 60.36 103.41 60.38 104.46 60.34 C 104.30 57.98 102.92 56.68 100.57 56.56 Z" />
<path fill="#fefefe" opacity="1.00" d=" M 112.11 55.54 C 112.70 57.13 113.31 58.72 113.92 60.31 C 111.71 65.44 109.46 70.54 107.23 75.66 C 106.99 75.00 106.51 73.68 106.27 73.03 C 108.23 67.20 110.17 61.37 112.11 55.54 Z" />
<path fill="#fefefe" opacity="1.00" d=" M 52.93 60.44 C 54.54 59.96 56.15 59.48 57.76 59.00 C 57.75 62.62 57.86 66.25 57.48 69.86 C 55.61 66.90 54.33 63.63 52.93 60.44 Z" />
<path fill="#fefefe" opacity="1.00" d=" M 61.25 58.75 C 70.33 58.75 79.41 58.75 88.50 58.75 C 88.50 59.80 88.51 60.84 88.51 61.89 C 85.42 62.72 82.19 63.55 79.67 65.64 C 76.33 68.08 74.57 71.97 73.25 75.76 C 71.29 75.75 69.32 75.75 67.36 75.77 C 65.69 73.37 63.62 71.31 61.23 69.64 C 61.26 66.01 61.25 62.38 61.25 58.75 M 64.00 62.00 C 64.00 63.33 64.00 64.67 64.00 66.00 C 66.33 66.00 68.67 66.00 71.00 66.00 C 71.00 64.67 71.00 63.33 71.00 62.00 C 68.67 62.00 66.33 62.00 64.00 62.00 Z" />
<path fill="#fefefe" opacity="1.00" d=" M 117.02 62.43 C 118.56 62.24 120.12 62.21 121.67 62.14 C 124.25 66.32 126.76 71.05 125.83 76.14 C 124.90 83.13 118.74 88.45 111.91 89.42 C 114.29 83.21 117.31 77.24 119.31 70.90 C 120.75 67.61 116.18 65.37 117.02 62.43 Z" />
<path fill="#fefefe" opacity="1.00" d=" M 37.50 65.21 C 38.99 64.76 40.47 64.31 41.96 63.85 C 43.52 67.38 45.15 70.89 46.53 74.50 C 43.89 76.41 40.53 75.61 37.51 75.77 C 37.50 72.25 37.50 68.73 37.50 65.21 Z" />
<path fill="#fefefe" opacity="1.00" d=" M 50.29 70.34 C 50.60 68.83 50.91 67.33 51.22 65.82 C 51.72 67.00 52.22 68.18 52.71 69.36 C 52.11 69.61 50.89 70.10 50.29 70.34 Z" />
<path fill="#fefefe" opacity="1.00" d=" M 77.04 75.50 C 78.95 71.22 82.25 67.19 87.02 66.14 C 94.27 64.03 102.18 69.31 103.53 76.64 C 99.66 74.69 97.73 69.87 93.12 69.21 C 87.51 67.75 81.90 70.95 79.14 75.79 C 78.62 75.71 77.56 75.57 77.04 75.50 Z" />
<path fill="#fefefe" opacity="1.00" d=" M 115.21 67.17 C 115.48 68.80 115.88 70.53 115.05 72.08 C 112.60 77.75 110.50 83.59 107.76 89.13 C 107.24 89.16 106.21 89.22 105.69 89.25 C 108.32 81.69 111.88 74.45 115.21 67.17 Z" />
<path fill="#fefefe" opacity="1.00" d=" M 52.39 73.44 C 57.99 70.49 65.51 75.59 64.32 81.94 C 64.01 88.43 55.31 91.55 50.66 87.29 C 46.22 83.71 47.16 75.81 52.39 73.44 M 53.41 76.45 C 50.31 78.13 50.05 83.03 52.88 85.09 C 56.03 87.69 61.59 85.24 61.29 81.00 C 61.63 76.98 56.69 74.29 53.41 76.45 Z" />
<path fill="#fefefe" opacity="1.00" d=" M 87.15 73.24 C 92.69 70.74 99.60 75.78 98.52 81.86 C 98.30 88.36 89.49 91.54 84.86 87.29 C 80.26 83.62 81.47 75.16 87.15 73.24 M 88.18 76.16 C 84.44 77.58 83.99 83.44 87.50 85.36 C 90.40 87.38 94.83 85.50 95.42 82.02 C 96.46 78.02 91.87 74.35 88.18 76.16 Z" />
<path fill="#fefefe" opacity="1.00" d=" M 37.50 79.25 C 39.69 79.25 41.88 79.25 44.07 79.25 C 44.03 80.34 43.99 81.42 43.96 82.51 C 41.81 82.50 39.65 82.50 37.50 82.50 C 37.50 81.41 37.50 80.33 37.50 79.25 Z" />
<path fill="#fefefe" opacity="1.00" d=" M 55.41 79.69 C 57.16 78.78 58.30 80.78 56.97 82.02 C 55.69 83.93 53.41 79.93 55.41 79.69 Z" />
<path fill="#fefefe" opacity="1.00" d=" M 68.14 79.19 C 71.51 79.27 74.88 79.26 78.25 79.25 C 78.25 80.33 78.25 81.42 78.25 82.50 C 74.92 82.49 71.58 82.48 68.25 82.56 C 68.22 81.44 68.18 80.31 68.14 79.19 Z" />
<path fill="#fefefe" opacity="1.00" d=" M 89.62 79.70 C 91.67 78.74 91.85 80.69 91.52 82.25 C 89.72 83.21 87.51 80.50 89.62 79.70 Z" />
</g>
<g id="#0013aeff">
<path fill="#0013ae" opacity="1.00" d=" M 98.90 19.85 C 98.20 17.29 100.24 14.19 103.01 14.25 C 110.07 13.62 116.83 19.24 118.04 26.12 C 120.14 36.40 122.00 46.74 124.02 57.03 C 124.53 60.82 127.37 63.65 128.58 67.18 C 130.31 72.42 130.09 78.43 127.24 83.26 C 123.91 89.39 117.02 93.15 110.09 93.03 C 107.37 93.14 103.47 93.25 102.49 90.03 C 101.55 86.19 104.41 82.77 105.64 79.30 C 104.61 79.25 103.57 79.19 102.53 79.13 C 102.80 84.84 99.72 90.90 93.93 92.48 C 88.19 94.42 82.17 91.20 79.21 86.24 C 75.22 86.26 71.22 86.25 67.23 86.25 C 64.62 90.39 60.00 93.61 54.91 92.90 C 50.63 92.69 47.29 89.66 45.05 86.25 C 41.84 86.10 38.46 86.76 35.38 85.66 C 33.34 84.56 33.87 81.93 33.72 80.02 C 33.82 75.00 33.58 69.97 33.85 64.96 C 33.86 61.49 38.04 61.37 40.44 60.31 C 38.00 55.68 37.20 49.55 32.06 46.98 C 29.01 44.35 23.73 42.82 23.55 38.12 C 23.75 32.61 31.10 31.75 32.58 26.89 C 33.39 25.13 33.49 22.66 35.42 21.69 C 37.83 20.15 41.68 21.18 42.56 24.02 C 43.57 27.73 43.89 31.58 44.48 35.38 C 48.29 37.01 51.95 39.59 53.47 43.62 C 55.36 47.72 54.14 52.24 53.31 56.43 C 54.85 55.99 56.39 55.55 57.93 55.12 C 58.89 48.58 59.75 42.03 60.77 35.50 C 57.25 33.74 57.18 29.56 58.14 26.24 C 58.65 24.63 60.63 24.50 62.04 24.49 C 71.35 24.48 80.67 24.53 89.99 24.47 C 91.55 24.54 93.30 24.34 94.64 25.34 C 96.31 28.76 96.23 33.76 92.27 35.55 C 92.79 42.07 93.17 48.61 93.61 55.14 C 94.01 54.85 94.81 54.28 95.21 53.99 C 95.43 48.71 94.90 43.39 95.50 38.14 C 96.85 34.42 99.78 31.54 101.90 28.25 C 100.85 25.47 99.61 22.74 98.90 19.85 M 102.31 17.73 C 102.89 20.06 103.61 22.35 104.32 24.63 C 107.00 24.84 110.87 23.32 112.33 26.40 C 113.45 33.16 112.17 40.12 112.98 46.91 C 114.17 50.85 115.84 54.63 117.23 58.50 C 118.05 58.50 119.69 58.50 120.51 58.51 C 118.43 47.83 116.52 37.11 114.29 26.46 C 113.17 20.95 107.69 17.65 102.31 17.73 M 33.96 31.89 C 31.68 33.96 29.16 35.76 26.91 37.85 C 27.24 38.37 27.89 39.40 28.22 39.92 C 32.25 36.92 36.19 33.82 40.15 30.73 C 39.60 28.49 39.80 25.81 37.83 24.20 C 36.27 26.63 36.21 29.91 33.96 31.89 M 61.25 28.00 C 61.25 28.81 61.25 30.43 61.25 31.25 C 71.50 31.25 81.75 31.25 92.00 31.25 C 92.00 30.44 92.00 28.81 92.00 28.00 C 81.75 28.00 71.50 28.00 61.25 28.00 M 105.62 29.59 C 103.39 32.68 100.94 35.68 99.15 39.05 C 98.78 43.44 99.09 47.85 99.01 52.25 C 102.34 50.58 105.67 48.91 109.00 47.25 C 108.94 40.66 109.14 34.07 108.87 27.49 C 107.70 28.04 106.30 28.38 105.62 29.59 M 64.56 35.00 C 63.58 41.75 62.63 48.50 61.66 55.24 C 66.02 55.25 70.39 55.25 74.75 55.25 C 74.75 48.50 74.75 41.75 74.75 35.00 C 71.35 35.00 67.96 35.00 64.56 35.00 M 78.50 35.00 C 78.50 38.33 78.50 41.67 78.50 45.00 C 82.09 45.00 85.68 45.00 89.27 45.00 C 89.00 41.67 88.80 38.35 88.57 35.02 C 85.22 34.99 81.86 35.00 78.50 35.00 M 31.66 42.10 C 33.60 43.49 35.54 44.88 37.48 46.26 C 39.02 45.49 40.55 44.72 42.09 43.95 C 41.63 41.00 41.18 38.05 40.73 35.10 C 37.70 37.42 34.69 39.76 31.66 42.10 M 45.18 39.55 C 45.47 44.71 48.06 49.23 50.09 53.85 C 51.93 48.50 50.02 42.58 45.18 39.55 M 39.72 49.36 C 42.27 55.08 44.69 60.85 47.32 66.53 C 47.75 64.40 48.33 62.28 48.49 60.11 C 47.08 55.83 44.96 51.83 43.24 47.66 C 42.07 48.23 40.90 48.80 39.72 49.36 M 78.50 48.50 C 78.50 50.75 78.50 53.00 78.50 55.25 C 82.31 55.24 86.13 55.21 89.94 55.33 C 89.78 53.05 89.62 50.77 89.44 48.50 C 85.80 48.50 82.15 48.50 78.50 48.50 M 98.11 56.95 C 97.55 58.94 96.99 60.92 96.44 62.91 C 99.19 64.35 101.72 66.18 103.93 68.37 C 105.71 62.70 107.89 57.16 109.33 51.39 C 105.56 53.18 101.84 55.09 98.11 56.95 M 112.11 55.54 C 110.17 61.37 108.23 67.20 106.27 73.03 C 106.51 73.68 106.99 75.00 107.23 75.66 C 109.46 70.54 111.71 65.44 113.92 60.31 C 113.31 58.72 112.70 57.13 112.11 55.54 M 52.93 60.44 C 54.33 63.63 55.61 66.90 57.48 69.86 C 57.86 66.25 57.75 62.62 57.76 59.00 C 56.15 59.48 54.54 59.96 52.93 60.44 M 61.25 58.75 C 61.25 62.38 61.26 66.01 61.23 69.64 C 63.62 71.31 65.69 73.37 67.36 75.77 C 69.32 75.75 71.29 75.75 73.25 75.76 C 74.57 71.97 76.33 68.08 79.67 65.64 C 82.19 63.55 85.42 62.72 88.51 61.89 C 88.51 60.84 88.50 59.80 88.50 58.75 C 79.41 58.75 70.33 58.75 61.25 58.75 M 117.02 62.43 C 116.18 65.37 120.75 67.61 119.31 70.90 C 117.31 77.24 114.29 83.21 111.91 89.42 C 118.74 88.45 124.90 83.13 125.83 76.14 C 126.76 71.05 124.25 66.32 121.67 62.14 C 120.12 62.21 118.56 62.24 117.02 62.43 M 37.50 65.21 C 37.50 68.73 37.50 72.25 37.51 75.77 C 40.53 75.61 43.89 76.41 46.53 74.50 C 45.15 70.89 43.52 67.38 41.96 63.85 C 40.47 64.31 38.99 64.76 37.50 65.21 M 50.29 70.34 C 50.89 70.10 52.11 69.61 52.71 69.36 C 52.22 68.18 51.72 67.00 51.22 65.82 C 50.91 67.33 50.60 68.83 50.29 70.34 M 77.04 75.50 C 77.56 75.57 78.62 75.71 79.14 75.79 C 81.90 70.95 87.51 67.75 93.12 69.21 C 97.73 69.87 99.66 74.69 103.53 76.64 C 102.18 69.31 94.27 64.03 87.02 66.14 C 82.25 67.19 78.95 71.22 77.04 75.50 M 115.21 67.17 C 111.88 74.45 108.32 81.69 105.69 89.25 C 106.21 89.22 107.24 89.16 107.76 89.13 C 110.50 83.59 112.60 77.75 115.05 72.08 C 115.88 70.53 115.48 68.80 115.21 67.17 M 52.39 73.44 C 47.16 75.81 46.22 83.71 50.66 87.29 C 55.31 91.55 64.01 88.43 64.32 81.94 C 65.51 75.59 57.99 70.49 52.39 73.44 M 87.15 73.24 C 81.47 75.16 80.26 83.62 84.86 87.29 C 89.49 91.54 98.30 88.36 98.52 81.86 C 99.60 75.78 92.69 70.74 87.15 73.24 M 37.50 79.25 C 37.50 80.33 37.50 81.41 37.50 82.50 C 39.65 82.50 41.81 82.50 43.96 82.51 C 43.99 81.42 44.03 80.34 44.07 79.25 C 41.88 79.25 39.69 79.25 37.50 79.25 M 68.14 79.19 C 68.18 80.31 68.22 81.44 68.25 82.56 C 71.58 82.48 74.92 82.49 78.25 82.50 C 78.25 81.42 78.25 80.33 78.25 79.25 C 74.88 79.26 71.51 79.27 68.14 79.19 Z" />
<path fill="#0013ae" opacity="1.00" d=" M 67.27 38.25 C 69.07 39.46 70.87 40.67 72.66 41.89 C 71.96 42.91 71.27 43.93 70.58 44.94 C 68.77 43.75 66.97 42.57 65.16 41.38 C 65.87 40.34 66.57 39.30 67.27 38.25 Z" />
<path fill="#0013ae" opacity="1.00" d=" M 102.50 38.51 C 104.85 36.68 107.22 40.24 104.74 41.77 C 102.51 42.30 101.76 40.34 102.50 38.51 Z" />
<path fill="#0013ae" opacity="1.00" d=" M 63.39 48.14 C 64.15 47.13 64.90 46.12 65.66 45.11 C 68.03 46.89 70.40 48.69 72.76 50.50 C 72.00 51.49 71.24 52.48 70.48 53.46 C 68.10 51.71 65.74 49.94 63.39 48.14 Z" />
<path fill="#0013ae" opacity="1.00" d=" M 100.57 56.56 C 102.92 56.68 104.30 57.98 104.46 60.34 C 103.41 60.38 102.35 60.36 101.30 60.28 C 100.12 59.46 100.88 57.72 100.57 56.56 Z" />
<path fill="#0013ae" opacity="1.00" d=" M 64.00 62.00 C 66.33 62.00 68.67 62.00 71.00 62.00 C 71.00 63.33 71.00 64.67 71.00 66.00 C 68.67 66.00 66.33 66.00 64.00 66.00 C 64.00 64.67 64.00 63.33 64.00 62.00 Z" />
<path fill="#0013ae" opacity="1.00" d=" M 53.41 76.45 C 56.69 74.29 61.63 76.98 61.29 81.00 C 61.59 85.24 56.03 87.69 52.88 85.09 C 50.05 83.03 50.31 78.13 53.41 76.45 M 55.41 79.69 C 53.41 79.93 55.69 83.93 56.97 82.02 C 58.30 80.78 57.16 78.78 55.41 79.69 Z" />
<path fill="#0013ae" opacity="1.00" d=" M 88.18 76.16 C 91.87 74.35 96.46 78.02 95.42 82.02 C 94.83 85.50 90.40 87.38 87.50 85.36 C 83.99 83.44 84.44 77.58 88.18 76.16 M 89.62 79.70 C 87.51 80.50 89.72 83.21 91.52 82.25 C 91.85 80.69 91.67 78.74 89.62 79.70 Z" />
</g>
</svg>
