<?xml version="1.0" encoding="UTF-8" ?>
<!DOCTYPE svg PUBLIC "-//W3C//DTD SVG 1.1//EN" "http://www.w3.org/Graphics/SVG/1.1/DTD/svg11.dtd">
<svg width="153pt" height="116pt" viewBox="0 0 153 116" version="1.1" xmlns="http://www.w3.org/2000/svg">
<g id="#fefefeff">
<path fill="#fefefe" opacity="1.00" d=" M 43.12 20.09 C 45.24 17.31 48.66 16.14 51.97 15.55 C 52.01 18.68 52.01 21.81 51.96 24.94 C 48.21 27.66 48.20 33.34 51.96 36.06 C 52.05 46.20 51.98 56.35 51.99 66.49 C 51.32 66.50 49.98 66.52 49.31 66.53 C 48.70 56.67 48.40 46.79 47.90 36.92 C 48.09 32.56 42.89 31.63 40.11 29.51 C 40.36 26.20 40.75 22.63 43.12 20.09 Z" />
<path fill="#fefefe" opacity="1.00" d=" M 55.26 19.66 C 58.43 21.04 61.60 22.44 64.75 23.88 C 64.45 24.36 63.86 25.30 63.56 25.77 C 60.77 25.45 58.03 24.81 55.25 24.40 C 55.25 22.82 55.25 21.24 55.26 19.66 Z" />
<path fill="#fefefe" opacity="1.00" d=" M 67.23 25.04 C 70.40 26.40 73.67 27.57 76.63 29.36 C 78.74 30.63 78.92 33.29 79.21 35.48 C 75.60 32.11 71.59 29.23 67.17 27.01 C 67.19 26.52 67.22 25.53 67.23 25.04 Z" />
<path fill="#fefefe" opacity="1.00" d=" M 52.78 32.04 C 51.89 30.56 52.42 28.54 54.06 27.89 C 65.58 27.63 76.64 34.87 81.28 45.39 C 79.54 45.48 77.79 45.44 76.08 45.75 C 74.37 46.49 74.46 48.67 73.77 50.12 C 70.03 44.96 66.08 39.69 60.51 36.37 C 58.06 34.70 55.09 33.93 52.78 32.04 Z" />
<path fill="#fefefe" opacity="1.00" d=" M 40.23 33.43 C 41.81 34.41 43.38 35.40 44.94 36.40 C 43.38 36.46 41.83 36.50 40.27 36.54 C 40.26 35.51 40.25 34.47 40.23 33.43 Z" />
<path fill="#fefefe" opacity="1.00" d=" M 43.23 58.97 C 43.66 52.27 42.38 45.36 43.98 38.80 C 45.19 41.73 44.97 44.93 45.15 48.02 C 45.32 53.25 45.72 58.47 45.75 63.71 C 42.01 64.77 43.64 60.80 43.23 58.97 Z" />
<path fill="#fefefe" opacity="1.00" d=" M 97.13 44.68 C 98.43 43.67 99.99 41.83 101.70 43.26 C 104.05 45.23 102.64 48.83 103.00 51.50 C 102.35 51.51 101.03 51.51 100.37 51.51 C 100.61 48.64 99.90 46.03 97.13 44.68 Z" />
<path fill="#fefefe" opacity="1.00" d=" M 77.07 51.45 C 77.26 50.55 77.46 49.65 77.65 48.74 C 84.12 48.76 90.58 48.75 97.05 48.75 C 97.01 49.45 96.94 50.85 96.91 51.55 C 90.29 51.43 83.68 51.57 77.07 51.45 Z" />
<path fill="#fefefe" opacity="1.00" d=" M 74.63 66.48 C 75.28 62.57 75.92 58.65 76.61 54.74 C 79.40 54.75 82.20 54.75 85.00 54.75 C 85.00 58.67 85.00 62.58 85.00 66.50 C 81.54 66.50 78.09 66.50 74.63 66.48 Z" />
<path fill="#fefefe" opacity="1.00" d=" M 88.25 54.75 C 91.17 54.75 94.08 54.75 97.00 54.75 C 97.00 56.67 97.00 58.58 97.00 60.50 C 94.08 60.50 91.17 60.50 88.25 60.50 C 88.25 58.58 88.25 56.67 88.25 54.75 Z" />
<path fill="#fefefe" opacity="1.00" d=" M 100.25 54.75 C 102.17 54.75 104.08 54.75 106.00 54.75 C 106.00 56.67 106.00 58.58 106.00 60.50 C 104.08 60.50 102.17 60.50 100.25 60.50 C 100.25 58.58 100.25 56.67 100.25 54.75 Z" />
<path fill="#fefefe" opacity="1.00" d=" M 109.26 57.75 C 112.17 57.75 115.08 57.75 118.00 57.75 C 118.00 58.44 118.00 59.81 118.00 60.50 C 115.08 60.50 112.17 60.50 109.25 60.50 C 109.25 59.81 109.25 58.44 109.26 57.75 Z" />
<path fill="#fefefe" opacity="1.00" d=" M 88.25 63.75 C 91.17 63.75 94.08 63.75 97.00 63.75 C 97.00 65.67 97.00 67.58 97.00 69.50 C 94.08 69.50 91.17 69.50 88.25 69.50 C 88.25 67.58 88.25 65.67 88.25 63.75 Z" />
<path fill="#fefefe" opacity="1.00" d=" M 100.25 63.76 C 108.22 63.75 116.19 63.75 124.15 63.76 C 123.82 65.18 124.48 67.11 123.07 68.09 C 120.17 70.57 117.42 73.30 114.24 75.41 C 109.58 75.67 104.91 75.42 100.24 75.49 C 100.26 71.58 100.25 67.67 100.25 63.76 Z" />
<path fill="#fefefe" opacity="1.00" d=" M 40.06 67.00 C 42.18 66.80 44.32 66.74 46.45 66.75 C 45.36 68.16 44.23 69.55 43.09 70.92 C 42.07 69.63 41.05 68.32 40.06 67.00 Z" />
<path fill="#fefefe" opacity="1.00" d=" M 51.29 69.15 C 51.59 69.60 52.18 70.51 52.48 70.96 C 54.05 77.83 54.88 84.87 56.56 91.72 C 57.07 93.87 59.78 93.53 61.39 94.14 C 60.71 96.64 58.20 97.61 56.24 98.91 C 54.59 88.99 52.46 79.13 51.29 69.15 Z" />
<path fill="#fefefe" opacity="1.00" d=" M 74.02 69.74 C 77.68 69.76 81.34 69.75 85.00 69.75 C 85.00 71.66 85.00 73.58 85.00 75.49 C 81.24 75.45 77.46 75.70 73.72 75.30 C 73.01 73.54 73.97 71.57 74.02 69.74 Z" />
<path fill="#fefefe" opacity="1.00" d=" M 40.71 81.74 C 41.65 77.21 44.98 73.80 47.87 70.40 C 49.61 80.18 51.37 89.95 52.94 99.76 C 44.30 99.24 38.78 89.72 40.71 81.74 Z" />
<path fill="#fefefe" opacity="1.00" d=" M 119.65 75.52 C 121.10 74.25 122.55 72.98 124.00 71.71 C 124.00 72.97 123.99 74.23 123.99 75.50 C 122.54 75.50 121.10 75.51 119.65 75.52 Z" />
<path fill="#fefefe" opacity="1.00" d=" M 88.26 72.75 C 91.17 72.75 94.08 72.75 97.00 72.75 C 97.00 73.44 97.00 74.81 97.00 75.50 C 94.08 75.50 91.17 75.50 88.25 75.50 C 88.25 74.81 88.25 73.44 88.26 72.75 Z" />
<path fill="#fefefe" opacity="1.00" d=" M 85.26 78.75 C 94.17 78.75 103.08 78.75 112.00 78.75 C 112.00 79.44 112.00 80.81 112.00 81.50 C 103.08 81.50 94.16 81.51 85.24 81.49 C 85.24 80.81 85.25 79.44 85.26 78.75 Z" />
<path fill="#fefefe" opacity="1.00" d=" M 70.44 94.82 C 69.59 89.82 73.88 84.78 78.96 84.79 C 90.97 84.68 102.99 84.79 115.01 84.75 C 115.00 85.44 114.99 86.82 114.99 87.50 C 105.97 87.49 96.95 87.50 87.93 87.51 C 84.55 87.73 81.44 84.94 78.07 86.49 C 72.79 88.09 71.43 95.83 75.67 99.27 C 78.99 102.48 84.48 101.35 87.19 97.91 C 89.41 101.58 94.03 101.95 97.33 99.52 C 100.05 101.73 103.54 101.40 106.34 99.51 C 108.95 101.64 112.26 101.41 115.07 99.78 C 115.04 100.46 115.00 101.82 114.97 102.50 C 103.02 102.46 91.07 102.58 79.13 102.45 C 74.87 102.43 70.97 99.06 70.44 94.82 Z" />
<path fill="#fefefe" opacity="1.00" d=" M 118.28 102.72 C 118.26 96.62 118.17 90.53 118.34 84.43 C 122.53 85.23 126.65 88.21 127.00 92.76 C 127.64 97.93 123.13 102.09 118.28 102.72 M 120.60 93.73 C 121.07 94.20 122.02 95.14 122.49 95.61 C 123.88 94.93 124.90 93.66 123.84 92.15 C 122.29 91.46 121.39 92.60 120.60 93.73 Z" />
<path fill="#fefefe" opacity="1.00" d=" M 79.39 89.50 C 82.40 88.34 86.00 91.78 84.75 94.84 C 84.11 97.67 80.17 98.95 78.03 96.95 C 75.31 95.02 76.25 90.41 79.39 89.50 M 79.49 92.49 C 77.77 93.57 80.52 96.62 81.80 94.82 C 83.63 93.27 80.92 90.74 79.49 92.49 Z" />
<path fill="#fefefe" opacity="1.00" d=" M 87.52 90.78 C 96.68 90.71 105.84 90.77 115.00 90.75 C 115.00 91.44 115.00 92.81 115.00 93.50 C 106.15 93.40 97.29 93.70 88.45 93.37 C 88.22 92.72 87.75 91.43 87.52 90.78 Z" />
</g>
<g id="#0013aeff">
<path fill="#0013ae" opacity="1.00" d=" M 37.33 24.94 C 38.41 17.61 45.63 11.90 53.02 12.55 C 54.64 13.00 55.00 14.74 55.62 16.06 C 62.75 19.46 70.10 22.39 77.22 25.80 C 82.06 27.96 83.25 33.98 81.41 38.58 C 82.64 40.85 83.81 43.15 84.90 45.49 C 87.85 45.50 90.81 45.50 93.77 45.49 C 94.55 43.78 95.00 41.69 96.69 40.59 C 99.67 38.37 104.42 39.75 105.83 43.17 C 106.50 45.73 106.20 48.42 106.31 51.03 C 107.68 51.97 108.86 53.13 109.82 54.49 C 112.97 54.59 116.16 54.23 119.29 54.71 C 121.78 55.51 121.13 58.36 121.36 60.39 C 123.33 60.56 125.76 60.19 127.04 62.09 C 127.45 66.73 127.31 71.43 127.15 76.09 C 127.24 77.33 126.16 78.42 124.98 78.58 C 121.76 78.95 118.50 78.70 115.26 78.75 C 115.25 79.41 115.24 80.74 115.23 81.40 C 119.12 81.34 123.39 81.76 126.33 84.62 C 131.30 88.92 131.60 97.32 126.95 101.97 C 124.49 104.79 120.65 105.83 117.01 105.76 C 104.64 105.75 92.27 105.76 79.89 105.75 C 75.57 105.87 71.15 103.82 68.90 100.04 C 65.53 94.93 66.95 87.40 71.95 83.87 C 74.74 81.53 78.55 81.50 82.00 81.41 C 82.00 80.75 82.00 79.42 82.00 78.75 C 79.06 78.70 76.07 79.00 73.16 78.49 C 70.80 77.94 69.59 75.16 70.23 72.94 C 71.15 66.94 72.25 60.96 73.22 54.97 C 68.26 48.11 63.19 40.86 55.28 37.16 C 55.27 47.14 55.16 57.13 55.32 67.12 C 56.39 74.87 58.15 82.53 59.52 90.24 C 61.11 90.63 63.03 90.57 64.05 92.09 C 64.27 93.89 64.68 96.00 63.71 97.65 C 58.92 103.08 49.89 104.49 44.09 99.86 C 36.14 93.73 34.97 81.47 40.77 73.47 C 39.44 71.73 37.88 70.09 37.05 68.02 C 36.61 65.78 38.47 64.39 39.99 63.19 C 40.01 55.39 39.99 47.58 40.01 39.78 C 39.44 39.60 38.30 39.25 37.73 39.08 C 36.51 34.48 36.89 29.62 37.33 24.94 M 43.12 20.09 C 40.75 22.63 40.36 26.20 40.11 29.51 C 42.89 31.63 48.09 32.56 47.90 36.92 C 48.40 46.79 48.70 56.67 49.31 66.53 C 49.98 66.52 51.32 66.50 51.99 66.49 C 51.98 56.35 52.05 46.20 51.96 36.06 C 48.20 33.34 48.21 27.66 51.96 24.94 C 52.01 21.81 52.01 18.68 51.97 15.55 C 48.66 16.14 45.24 17.31 43.12 20.09 M 55.26 19.66 C 55.25 21.24 55.25 22.82 55.25 24.40 C 58.03 24.81 60.77 25.45 63.56 25.77 C 63.86 25.30 64.45 24.36 64.75 23.88 C 61.60 22.44 58.43 21.04 55.26 19.66 M 67.23 25.04 C 67.22 25.53 67.19 26.52 67.17 27.01 C 71.59 29.23 75.60 32.11 79.21 35.48 C 78.92 33.29 78.74 30.63 76.63 29.36 C 73.67 27.57 70.40 26.40 67.23 25.04 M 52.78 32.04 C 55.09 33.93 58.06 34.70 60.51 36.37 C 66.08 39.69 70.03 44.96 73.77 50.12 C 74.46 48.67 74.37 46.49 76.08 45.75 C 77.79 45.44 79.54 45.48 81.28 45.39 C 76.64 34.87 65.58 27.63 54.06 27.89 C 52.42 28.54 51.89 30.56 52.78 32.04 M 40.23 33.43 C 40.25 34.47 40.26 35.51 40.27 36.54 C 41.83 36.50 43.38 36.46 44.94 36.40 C 43.38 35.40 41.81 34.41 40.23 33.43 M 43.23 58.97 C 43.64 60.80 42.01 64.77 45.75 63.71 C 45.72 58.47 45.32 53.25 45.15 48.02 C 44.97 44.93 45.19 41.73 43.98 38.80 C 42.38 45.36 43.66 52.27 43.23 58.97 M 97.13 44.68 C 99.90 46.03 100.61 48.64 100.37 51.51 C 101.03 51.51 102.35 51.51 103.00 51.50 C 102.64 48.83 104.05 45.23 101.70 43.26 C 99.99 41.83 98.43 43.67 97.13 44.68 M 77.07 51.45 C 83.68 51.57 90.29 51.43 96.91 51.55 C 96.94 50.85 97.01 49.45 97.05 48.75 C 90.58 48.75 84.12 48.76 77.65 48.74 C 77.46 49.65 77.26 50.55 77.07 51.45 M 74.63 66.48 C 78.09 66.50 81.54 66.50 85.00 66.50 C 85.00 62.58 85.00 58.67 85.00 54.75 C 82.20 54.75 79.40 54.75 76.61 54.74 C 75.92 58.65 75.28 62.57 74.63 66.48 M 88.25 54.75 C 88.25 56.67 88.25 58.58 88.25 60.50 C 91.17 60.50 94.08 60.50 97.00 60.50 C 97.00 58.58 97.00 56.67 97.00 54.75 C 94.08 54.75 91.17 54.75 88.25 54.75 M 100.25 54.75 C 100.25 56.67 100.25 58.58 100.25 60.50 C 102.17 60.50 104.08 60.50 106.00 60.50 C 106.00 58.58 106.00 56.67 106.00 54.75 C 104.08 54.75 102.17 54.75 100.25 54.75 M 109.26 57.75 C 109.25 58.44 109.25 59.81 109.25 60.50 C 112.17 60.50 115.08 60.50 118.00 60.50 C 118.00 59.81 118.00 58.44 118.00 57.75 C 115.08 57.75 112.17 57.75 109.26 57.75 M 88.25 63.75 C 88.25 65.67 88.25 67.58 88.25 69.50 C 91.17 69.50 94.08 69.50 97.00 69.50 C 97.00 67.58 97.00 65.67 97.00 63.75 C 94.08 63.75 91.17 63.75 88.25 63.75 M 100.25 63.76 C 100.25 67.67 100.26 71.58 100.24 75.49 C 104.91 75.42 109.58 75.67 114.24 75.41 C 117.42 73.30 120.17 70.57 123.07 68.09 C 124.48 67.11 123.82 65.18 124.15 63.76 C 116.19 63.75 108.22 63.75 100.25 63.76 M 40.06 67.00 C 41.05 68.32 42.07 69.63 43.09 70.92 C 44.23 69.55 45.36 68.16 46.45 66.75 C 44.32 66.74 42.18 66.80 40.06 67.00 M 51.29 69.15 C 52.46 79.13 54.59 88.99 56.24 98.91 C 58.20 97.61 60.71 96.64 61.39 94.14 C 59.78 93.53 57.07 93.87 56.56 91.72 C 54.88 84.87 54.05 77.83 52.48 70.96 C 52.18 70.51 51.59 69.60 51.29 69.15 M 74.02 69.74 C 73.97 71.57 73.01 73.54 73.72 75.30 C 77.46 75.70 81.24 75.45 85.00 75.49 C 85.00 73.58 85.00 71.66 85.00 69.75 C 81.34 69.75 77.68 69.76 74.02 69.74 M 40.71 81.74 C 38.78 89.72 44.30 99.24 52.94 99.76 C 51.37 89.95 49.61 80.18 47.87 70.40 C 44.98 73.80 41.65 77.21 40.71 81.74 M 119.65 75.52 C 121.10 75.51 122.54 75.50 123.99 75.50 C 123.99 74.23 124.00 72.97 124.00 71.71 C 122.55 72.98 121.10 74.25 119.65 75.52 M 88.26 72.75 C 88.25 73.44 88.25 74.81 88.25 75.50 C 91.17 75.50 94.08 75.50 97.00 75.50 C 97.00 74.81 97.00 73.44 97.00 72.75 C 94.08 72.75 91.17 72.75 88.26 72.75 M 85.26 78.75 C 85.25 79.44 85.24 80.81 85.24 81.49 C 94.16 81.51 103.08 81.50 112.00 81.50 C 112.00 80.81 112.00 79.44 112.00 78.75 C 103.08 78.75 94.17 78.75 85.26 78.75 M 70.44 94.82 C 70.97 99.06 74.87 102.43 79.13 102.45 C 91.07 102.58 103.02 102.46 114.97 102.50 C 115.00 101.82 115.04 100.46 115.07 99.78 C 112.26 101.41 108.95 101.64 106.34 99.51 C 103.54 101.40 100.05 101.73 97.33 99.52 C 94.03 101.95 89.41 101.58 87.19 97.91 C 84.48 101.35 78.99 102.48 75.67 99.27 C 71.43 95.83 72.79 88.09 78.07 86.49 C 81.44 84.94 84.55 87.73 87.93 87.51 C 96.95 87.50 105.97 87.49 114.99 87.50 C 114.99 86.82 115.00 85.44 115.01 84.75 C 102.99 84.79 90.97 84.68 78.96 84.79 C 73.88 84.78 69.59 89.82 70.44 94.82 M 118.28 102.72 C 123.13 102.09 127.64 97.93 127.00 92.76 C 126.65 88.21 122.53 85.23 118.34 84.43 C 118.17 90.53 118.26 96.62 118.28 102.72 M 79.39 89.50 C 76.25 90.41 75.31 95.02 78.03 96.95 C 80.17 98.95 84.11 97.67 84.75 94.84 C 86.00 91.78 82.40 88.34 79.39 89.50 M 87.52 90.78 C 87.75 91.43 88.22 92.72 88.45 93.37 C 97.29 93.70 106.15 93.40 115.00 93.50 C 115.00 92.81 115.00 91.44 115.00 90.75 C 105.84 90.77 96.68 90.71 87.52 90.78 Z" />
<path fill="#0013ae" opacity="1.00" d=" M 79.49 92.49 C 80.92 90.74 83.63 93.27 81.80 94.82 C 80.52 96.62 77.77 93.57 79.49 92.49 Z" />
<path fill="#0013ae" opacity="1.00" d=" M 120.60 93.73 C 121.39 92.60 122.29 91.46 123.84 92.15 C 124.90 93.66 123.88 94.93 122.49 95.61 C 122.02 95.14 121.07 94.20 120.60 93.73 Z" />
</g>
</svg>
